<svg width="133" height="142" viewBox="0 0 133 142" fill="none" xmlns="http://www.w3.org/2000/svg">
<rect width="133" height="142" fill="white"/>
<path d="M50 100L133 111V125L50 142V100Z" fill="url(#paint0_linear_4612_16234)"/>
<path d="M50 42L94 120.947L50 142L6 120.947L50 42Z" fill="#CCCCCC"/>
<mask id="path-3-outside-1_4612_16234" maskUnits="userSpaceOnUse" x="30.4023" y="55.8203" width="39" height="28" fill="black">
<rect fill="white" x="30.4023" y="55.8203" width="39" height="28"/>
<path fill-rule="evenodd" clip-rule="evenodd" d="M67.5975 73.5762L50.0015 81.9743L32.4023 73.5747L41.1828 57.8203L50.0015 62.0293L58.8171 57.8218L67.5975 73.5762Z"/>
</mask>
<path fill-rule="evenodd" clip-rule="evenodd" d="M67.5975 73.5762L50.0015 81.9743L32.4023 73.5747L41.1828 57.8203L50.0015 62.0293L58.8171 57.8218L67.5975 73.5762Z" fill="#449891"/>
<path d="M67.5975 73.5762L68.0283 74.4787L68.9896 74.0199L68.471 73.0894L67.5975 73.5762ZM50.0015 81.9743L49.5708 82.8768L50.0015 83.0823L50.4323 82.8768L50.0015 81.9743ZM32.4023 73.5747L31.5288 73.0878L31.0103 74.0183L31.9716 74.4772L32.4023 73.5747ZM41.1828 57.8203L41.6135 56.9178L40.7663 56.5135L40.3093 57.3335L41.1828 57.8203ZM50.0015 62.0293L49.5708 62.9318L50.0015 63.1373L50.4323 62.9318L50.0015 62.0293ZM58.8171 57.8218L59.6906 57.335L59.2336 56.515L58.3864 56.9194L58.8171 57.8218ZM67.1668 72.6737L49.5708 81.0718L50.4323 82.8768L68.0283 74.4787L67.1668 72.6737ZM50.4323 81.0718L32.8331 72.6722L31.9716 74.4772L49.5708 82.8768L50.4323 81.0718ZM33.2758 74.0615L42.0563 58.3071L40.3093 57.3335L31.5288 73.0878L33.2758 74.0615ZM40.752 58.7228L49.5708 62.9318L50.4323 61.1268L41.6135 56.9178L40.752 58.7228ZM50.4323 62.9318L59.2478 58.7243L58.3864 56.9194L49.5708 61.1268L50.4323 62.9318ZM57.9436 58.3087L66.724 74.063L68.471 73.0894L59.6906 57.335L57.9436 58.3087Z" fill="white" mask="url(#path-3-outside-1_4612_16234)"/>
<path fill-rule="evenodd" clip-rule="evenodd" d="M6 120.947L50 42V142L6 120.947Z" fill="#D9D9D9" fill-opacity="0.5" style="mix-blend-mode:overlay"/>
<defs>
<linearGradient id="paint0_linear_4612_16234" x1="50" y1="121" x2="133" y2="121" gradientUnits="userSpaceOnUse">
<stop stop-color="#C8C8C8" stop-opacity="0.5"/>
<stop offset="0.8" stop-color="#CCCCCC" stop-opacity="0"/>
</linearGradient>
</defs>
</svg>
