<svg width="133" height="142" viewBox="0 0 133 142" fill="none" xmlns="http://www.w3.org/2000/svg">
<rect width="133" height="142" fill="white"/>
<path d="M50 100L133 111V125L50 142V100Z" fill="url(#paint0_linear_4612_16236)"/>
<path d="M50 42L94 120.947L50 142L6 120.947L50 42Z" fill="#CCCCCC"/>
<mask id="path-3-outside-1_4612_16236" maskUnits="userSpaceOnUse" x="39.207" y="40.0195" width="21" height="24" fill="black">
<rect fill="white" x="39.207" y="40.0195" width="21" height="24"/>
<path fill-rule="evenodd" clip-rule="evenodd" d="M58.7917 57.7756L50.0012 61.9711L41.207 57.7739L49.9875 42.0195L50.0012 42.0261L50.0113 42.0212L58.7917 57.7756Z"/>
</mask>
<path fill-rule="evenodd" clip-rule="evenodd" d="M58.7917 57.7756L50.0012 61.9711L41.207 57.7739L49.9875 42.0195L50.0012 42.0261L50.0113 42.0212L58.7917 57.7756Z" fill="#449891"/>
<path d="M58.7917 57.7756L59.2224 58.6781L60.1838 58.2193L59.6652 57.2888L58.7917 57.7756ZM50.0012 61.9711L49.5704 62.8736L50.0012 63.0791L50.4319 62.8736L50.0012 61.9711ZM41.207 57.7739L40.3335 57.2871L39.8149 58.2175L40.7763 58.6764L41.207 57.7739ZM49.9875 42.0195L50.4182 41.117L49.571 40.7127L49.114 41.5327L49.9875 42.0195ZM50.0012 42.0261L49.5704 42.9285L50.0012 43.1341L50.4319 42.9285L50.0012 42.0261ZM50.0113 42.0212L50.8848 41.5344L50.4277 40.7144L49.5805 41.1188L50.0113 42.0212ZM58.361 56.8731L49.5704 61.0686L50.4319 62.8736L59.2224 58.6781L58.361 56.8731ZM50.4319 61.0686L41.6378 56.8714L40.7763 58.6764L49.5704 62.8736L50.4319 61.0686ZM42.0805 58.2607L50.861 42.5064L49.114 41.5327L40.3335 57.2871L42.0805 58.2607ZM49.5567 42.922L49.5704 42.9285L50.4319 41.1236L50.4182 41.117L49.5567 42.922ZM50.4319 42.9285L50.442 42.9237L49.5805 41.1188L49.5704 41.1236L50.4319 42.9285ZM49.1378 42.5081L57.9182 58.2624L59.6652 57.2888L50.8848 41.5344L49.1378 42.5081Z" fill="white" mask="url(#path-3-outside-1_4612_16236)"/>
<path fill-rule="evenodd" clip-rule="evenodd" d="M6 120.947L50 42V142L6 120.947Z" fill="#D9D9D9" fill-opacity="0.5" style="mix-blend-mode:overlay"/>
<defs>
<linearGradient id="paint0_linear_4612_16236" x1="50" y1="121" x2="133" y2="121" gradientUnits="userSpaceOnUse">
<stop stop-color="#C8C8C8" stop-opacity="0.5"/>
<stop offset="0.8" stop-color="#CCCCCC" stop-opacity="0"/>
</linearGradient>
</defs>
</svg>
