<svg width="133" height="142" viewBox="0 0 133 142" fill="none" xmlns="http://www.w3.org/2000/svg">
<rect width="133" height="142" fill="white"/>
<path d="M50 100L133 111V125L50 142V100Z" fill="url(#paint0_linear_4612_16235)"/>
<path d="M50 42L94 120.947L50 142L6 120.947L50 42Z" fill="#CCCCCC"/>
<mask id="path-3-outside-1_4612_16235" maskUnits="userSpaceOnUse" x="21.5977" y="71.6172" width="57" height="32" fill="black">
<rect fill="white" x="21.5977" y="71.6172" width="57" height="32"/>
<path fill-rule="evenodd" clip-rule="evenodd" d="M23.5977 89.3715L32.3781 73.6172L50.0019 82.0286L67.6217 73.6191L76.4021 89.3735L50.0019 101.974L23.5977 89.3715Z"/>
</mask>
<path fill-rule="evenodd" clip-rule="evenodd" d="M23.5977 89.3715L32.3781 73.6172L50.0019 82.0286L67.6217 73.6191L76.4021 89.3735L50.0019 101.974L23.5977 89.3715Z" fill="#449891"/>
<path d="M23.5977 89.3715L22.7242 88.8847L22.2056 89.8152L23.1669 90.274L23.5977 89.3715ZM32.3781 73.6172L32.8088 72.7147L31.9616 72.3104L31.5046 73.1304L32.3781 73.6172ZM50.0019 82.0286L49.5712 82.9311L50.0019 83.1366L50.4327 82.9311L50.0019 82.0286ZM67.6217 73.6191L68.4952 73.1323L68.0382 72.3123L67.191 72.7166L67.6217 73.6191ZM76.4021 89.3735L76.8329 90.276L77.7942 89.8171L77.2756 88.8867L76.4021 89.3735ZM50.0019 101.974L49.5712 102.876L50.0019 103.082L50.4327 102.876L50.0019 101.974ZM24.4712 89.8584L33.2516 74.104L31.5046 73.1304L22.7242 88.8847L24.4712 89.8584ZM31.9474 74.5197L49.5712 82.9311L50.4327 81.1261L32.8088 72.7147L31.9474 74.5197ZM50.4327 82.9311L68.0524 74.5216L67.191 72.7166L49.5712 81.1261L50.4327 82.9311ZM66.7482 74.106L75.5287 89.8603L77.2756 88.8867L68.4952 73.1323L66.7482 74.106ZM75.9714 88.471L49.5712 101.071L50.4327 102.876L76.8329 90.276L75.9714 88.471ZM50.4327 101.071L24.0284 88.4691L23.1669 90.274L49.5712 102.876L50.4327 101.071Z" fill="white" mask="url(#path-3-outside-1_4612_16235)"/>
<path fill-rule="evenodd" clip-rule="evenodd" d="M6 120.947L50 42V142L6 120.947Z" fill="#D9D9D9" fill-opacity="0.5" style="mix-blend-mode:overlay"/>
<defs>
<linearGradient id="paint0_linear_4612_16235" x1="50" y1="121" x2="133" y2="121" gradientUnits="userSpaceOnUse">
<stop stop-color="#C8C8C8" stop-opacity="0.5"/>
<stop offset="0.8" stop-color="#CCCCCC" stop-opacity="0"/>
</linearGradient>
</defs>
</svg>
