<svg width="101" height="100" viewBox="0 0 101 100" fill="none" xmlns="http://www.w3.org/2000/svg">
<g id="Frame 278" clip-path="url(#clip0_4455_16464)">
<rect width="100" height="100" transform="translate(0.5)" fill="white"/>
<path id="Polygon 4" d="M50.5 1L94.5 78.3684L50.5 99L6.5 78.3684L50.5 1Z" fill="#DBDBDB"/>
<path id="Vector 49 (Stroke)" d="M50.5291 80.3315L50.1445 80.1748L48.991 79.7048L48.9902 79.7045L50.5291 80.3315ZM50.5291 80.3315L50.9115 80.1697L52.0587 79.6843C54.8615 78.4985 57.6088 77.3537 60.2941 76.2347L60.3241 76.2222C69.9402 72.2151 78.7771 68.5328 86.3631 64.5401L87.248 64.0744L86.7823 63.1895L83.9878 57.88L83.5221 56.995L82.6372 57.4608C75.4001 61.2698 66.9793 64.7803 57.379 68.7817C55.1407 69.7146 52.8394 70.6738 50.4772 71.6685C49.7598 71.3737 48.8165 70.985 47.7027 70.5237C45.0703 69.4333 41.4898 67.9389 37.6935 66.3208C29.984 63.0347 21.7358 59.3853 18.4847 57.5275L17.6164 57.0313L17.1203 57.8996L14.1435 63.109L13.6473 63.9773L14.5156 64.4734C18.2644 66.6156 27.0159 70.466 34.5567 73.6802C38.3855 75.3121 41.9924 76.8176 44.6413 77.9147C45.9661 78.4635 47.0522 78.9105 47.8077 79.2205C47.8984 79.2577 47.9844 79.293 48.0654 79.3262M50.5291 80.3315L48.0654 79.3262M48.0654 79.3262L48.0649 79.3275L48.9885 79.7038L48.0654 79.3262Z" fill="#449891" stroke="white" stroke-width="2"/>
<g id="Rectangle 91" style="mix-blend-mode:overlay">
<rect x="0.5" width="50" height="100" fill="#D9D9D9" fill-opacity="0.5"/>
</g>
</g>
<defs>
<clipPath id="clip0_4455_16464">
<rect width="100" height="100" fill="white" transform="translate(0.5)"/>
</clipPath>
</defs>
</svg>
