<svg width="24" height="25" viewBox="0 0 24 25" fill="none" xmlns="http://www.w3.org/2000/svg">
<g id="Icon" clip-path="url(#clip0_701_1795)">
<mask id="mask0_701_1795" style="mask-type:alpha" maskUnits="userSpaceOnUse" x="0" y="0" width="24" height="25">
<rect id="Bounding box" y="0.0307617" width="24" height="24" fill="#D9D9D9"/>
</mask>
<g mask="url(#mask0_701_1795)">
<path id="build" d="M17.15 20.7308L11.1 14.6308C10.7667 14.7641 10.4292 14.8641 10.0875 14.9308C9.74583 14.9974 9.38333 15.0308 9 15.0308C7.33333 15.0308 5.91667 14.4474 4.75 13.2808C3.58333 12.1141 3 10.6974 3 9.03076C3 8.43076 3.08333 7.85993 3.25 7.31826C3.41667 6.77659 3.65 6.2641 3.95 5.78076L7.6 9.43076L9.4 7.63076L5.75 3.98076C6.23333 3.68076 6.74583 3.44743 7.2875 3.28076C7.82917 3.1141 8.4 3.03076 9 3.03076C10.6667 3.03076 12.0833 3.61409 13.25 4.78076C14.4167 5.94743 15 7.3641 15 9.03076C15 9.41409 14.9667 9.7766 14.9 10.1183C14.8333 10.4599 14.7333 10.7974 14.6 11.1308L20.7 17.1808C20.9 17.3808 21 17.6224 21 17.9058C21 18.1891 20.9 18.4308 20.7 18.6308L18.6 20.7308C18.4 20.9308 18.1583 21.0308 17.875 21.0308C17.5917 21.0308 17.35 20.9308 17.15 20.7308ZM17.875 18.6058L18.55 17.9308L12.15 11.5308C12.45 11.1974 12.6667 10.8099 12.8 10.3683C12.9333 9.9266 13 9.48076 13 9.03076C13 8.03076 12.6792 7.15993 12.0375 6.41826C11.3958 5.6766 10.6 5.23076 9.65 5.08076L11.5 6.93076C11.7 7.13076 11.8 7.36409 11.8 7.63076C11.8 7.89743 11.7 8.13076 11.5 8.33076L8.3 11.5308C8.1 11.7308 7.86667 11.8308 7.6 11.8308C7.33333 11.8308 7.1 11.7308 6.9 11.5308L5.05 9.68076C5.2 10.6308 5.64583 11.4266 6.3875 12.0683C7.12917 12.7099 8 13.0308 9 13.0308C9.43333 13.0308 9.86667 12.9641 10.3 12.8308C10.7333 12.6974 11.125 12.4891 11.475 12.2058L17.875 18.6058Z" fill="#222222"/>
</g>
</g>
<defs>
<clipPath id="clip0_701_1795">
<rect width="24" height="24" fill="white" transform="translate(0 0.0307617)"/>
</clipPath>
</defs>
</svg>
