<svg width="40" height="40" viewBox="0 0 40 40" fill="none" xmlns="http://www.w3.org/2000/svg">
<rect width="40" height="40" rx="4" fill="#2463BC" fill-opacity="0.08"/>
<mask id="mask0_2985_8906" style="mask-type:alpha" maskUnits="userSpaceOnUse" x="8" y="8" width="24" height="24">
<rect x="8" y="8" width="24" height="24" fill="#D9D9D9"/>
</mask>
<g mask="url(#mask0_2985_8906)">
<path d="M16.5 18.5H13C12.45 18.5 11.9792 18.3042 11.5875 17.9125C11.1958 17.5208 11 17.05 11 16.5V13C11 12.45 11.1958 11.9792 11.5875 11.5875C11.9792 11.1958 12.45 11 13 11H16.5C17.05 11 17.5208 11.1958 17.9125 11.5875C18.3042 11.9792 18.5 12.45 18.5 13V16.5C18.5 17.05 18.3042 17.5208 17.9125 17.9125C17.5208 18.3042 17.05 18.5 16.5 18.5ZM13 16.5H16.5V13H13V16.5ZM16.5 29H13C12.45 29 11.9792 28.8042 11.5875 28.4125C11.1958 28.0208 11 27.55 11 27V23.5C11 22.95 11.1958 22.4792 11.5875 22.0875C11.9792 21.6958 12.45 21.5 13 21.5H16.5C17.05 21.5 17.5208 21.6958 17.9125 22.0875C18.3042 22.4792 18.5 22.95 18.5 23.5V27C18.5 27.55 18.3042 28.0208 17.9125 28.4125C17.5208 28.8042 17.05 29 16.5 29ZM13 27H16.5V23.5H13V27ZM27 18.5H23.5C22.95 18.5 22.4792 18.3042 22.0875 17.9125C21.6958 17.5208 21.5 17.05 21.5 16.5V13C21.5 12.45 21.6958 11.9792 22.0875 11.5875C22.4792 11.1958 22.95 11 23.5 11H27C27.55 11 28.0208 11.1958 28.4125 11.5875C28.8042 11.9792 29 12.45 29 13V16.5C29 17.05 28.8042 17.5208 28.4125 17.9125C28.0208 18.3042 27.55 18.5 27 18.5ZM23.5 16.5H27V13H23.5V16.5ZM27 29H23.5C22.95 29 22.4792 28.8042 22.0875 28.4125C21.6958 28.0208 21.5 27.55 21.5 27V23.5C21.5 22.95 21.6958 22.4792 22.0875 22.0875C22.4792 21.6958 22.95 21.5 23.5 21.5H27C27.55 21.5 28.0208 21.6958 28.4125 22.0875C28.8042 22.4792 29 22.95 29 23.5V27C29 27.55 28.8042 28.0208 28.4125 28.4125C28.0208 28.8042 27.55 29 27 29ZM23.5 27H27V23.5H23.5V27Z" fill="#2463BC"/>
</g>
</svg>
