<svg width="2063" height="512" viewBox="0 0 2063 512" fill="none" xmlns="http://www.w3.org/2000/svg">
<g clip-path="url(#clip0_350_1325)">
<path fill-rule="evenodd" clip-rule="evenodd" d="M170.667 341.333C217.795 341.333 256 303.128 256 256C256 208.871 217.795 170.666 170.667 170.666V341.333Z" fill="#111111"/>
<path fill-rule="evenodd" clip-rule="evenodd" d="M170.667 85.3335C76.4101 85.3335 0 161.743 0 256C0 350.257 76.4101 426.667 170.667 426.667V341.333C123.538 341.333 85.3334 303.128 85.3334 256C85.3334 208.872 123.538 170.667 170.667 170.667V85.3335Z" fill="#111111"/>
<path fill-rule="evenodd" clip-rule="evenodd" d="M170.667 512V426.667C264.923 426.667 341.333 350.257 341.333 256C341.333 206.479 320.242 161.885 286.553 130.709L344.496 68.0635C395.03 114.827 426.667 181.719 426.667 256C426.667 397.385 312.051 512 170.667 512ZM277.622 23.3451C245.076 8.35836 208.847 0 170.667 0V85.3334C196.12 85.3334 220.273 90.9057 241.97 100.897L277.622 23.3451Z" fill="#111111"/>
<path d="M620.651 182.955C631.147 174.251 637.803 162.475 640.363 147.115H612.203C610.411 154.795 606.827 160.939 601.195 165.547C595.563 170.155 588.395 172.203 579.947 172.203C568.683 172.203 559.723 168.363 553.067 160.171C546.411 151.979 543.083 141.483 543.083 128.427C543.083 115.627 546.411 105.387 553.067 97.1946C559.723 89.2586 568.683 85.1626 579.947 85.1626C588.139 85.1626 595.051 87.4666 600.683 91.8186C606.315 96.4266 609.899 102.315 611.947 109.739H640.363C637.803 94.8906 631.147 83.3706 620.907 74.6666C610.411 65.9626 597.099 61.6106 580.715 61.6106C567.403 61.6106 555.883 64.4266 545.899 70.0586C535.915 75.6906 528.235 83.3706 522.859 93.3546C517.227 103.595 514.667 115.115 514.667 128.427C514.667 141.739 517.227 153.515 522.603 163.755C527.979 173.995 535.659 181.931 545.643 187.563C555.371 193.195 566.891 195.755 579.947 195.755C596.331 195.755 609.899 191.659 620.651 182.955Z" fill="#111111"/>
<path d="M787.971 170.155H782.595C776.707 170.155 773.891 167.083 773.891 160.939V109.227C773.891 93.8666 769.027 82.0906 759.555 73.8986C749.827 65.7066 736.259 61.6106 718.851 61.6106C702.211 61.6106 688.899 65.4506 678.659 72.6186C668.419 79.7866 662.531 90.0266 661.251 103.083H688.387C689.411 97.4506 692.483 92.8426 697.603 89.2586C702.723 85.6746 709.379 83.8826 717.571 83.8826C726.531 83.8826 733.699 86.1866 738.819 90.2826C743.939 94.3786 746.499 100.267 746.499 107.435V115.371H713.475C695.043 115.371 681.219 119.211 671.747 126.379C662.019 133.547 657.411 144.043 657.411 157.355C657.411 169.387 661.763 178.859 670.723 185.515C679.427 192.427 691.203 195.755 706.051 195.755C724.995 195.755 739.331 188.331 749.315 173.227C749.315 180.139 751.107 185.259 754.947 188.843C758.531 192.427 764.675 194.219 773.379 194.219H787.971V170.155ZM746.499 135.851V140.459C746.243 150.699 742.915 158.891 736.515 165.035C730.115 171.179 721.155 174.251 709.891 174.251C702.211 174.251 696.323 172.715 691.971 169.131C687.619 165.803 685.571 161.195 685.571 155.563C685.571 149.163 687.875 144.299 692.483 140.971C697.091 137.643 703.491 135.851 712.195 135.851H746.499Z" fill="#111111"/>
<path d="M910.039 75.9466C900.311 66.4746 887.511 61.6106 872.151 61.6106C853.975 61.6106 839.895 68.0106 830.167 80.2986L827.095 63.1466H803.031V194.219H830.679V128.171C830.679 114.859 833.751 104.619 839.895 96.9386C846.039 89.2586 854.743 85.4186 865.751 85.4186C875.991 85.4186 883.671 88.7466 889.047 95.1466C894.167 101.803 896.983 111.275 896.983 123.563V194.219H924.887V122.027C924.887 101.035 919.767 85.6746 910.039 75.9466Z" fill="#111111"/>
<path d="M1051.15 182.955C1061.65 174.251 1068.3 162.475 1070.86 147.115H1042.7C1040.91 154.795 1037.33 160.939 1031.69 165.547C1026.06 170.155 1018.89 172.203 1010.45 172.203C999.183 172.203 990.223 168.363 983.567 160.171C976.911 151.979 973.583 141.483 973.583 128.427C973.583 115.627 976.911 105.387 983.567 97.1946C990.223 89.2586 999.183 85.1626 1010.45 85.1626C1018.64 85.1626 1025.55 87.4666 1031.18 91.8186C1036.81 96.4266 1040.4 102.315 1042.45 109.739H1070.86C1068.3 94.8906 1061.65 83.3706 1051.41 74.6666C1040.91 65.9626 1027.6 61.6106 1011.21 61.6106C997.903 61.6106 986.383 64.4266 976.399 70.0586C966.415 75.6906 958.735 83.3706 953.359 93.3546C947.727 103.595 945.167 115.115 945.167 128.427C945.167 141.739 947.727 153.515 953.103 163.755C958.479 173.995 966.159 181.931 976.143 187.563C985.871 193.195 997.391 195.755 1010.45 195.755C1026.83 195.755 1040.4 191.659 1051.15 182.955Z" fill="#111111"/>
<path d="M1093.85 93.6106C1088.48 103.851 1085.92 115.627 1085.92 128.939C1085.92 142.251 1088.48 154.027 1094.11 164.011C1099.74 174.251 1107.42 181.931 1117.66 187.563C1127.9 193.195 1139.68 195.755 1153.5 195.755C1169.12 195.755 1182.17 191.659 1192.67 182.955C1203.16 174.507 1209.56 163.499 1212.12 150.187H1184.48C1182.43 157.611 1178.59 163.243 1172.96 167.339C1167.07 171.435 1159.9 173.227 1151.45 173.227C1140.7 173.227 1132 169.899 1125.6 163.243C1118.94 156.587 1115.36 147.627 1114.84 136.107V134.571H1213.66C1214.17 130.987 1214.43 127.659 1214.43 124.075C1214.17 111.531 1211.36 100.523 1205.72 91.0506C1200.09 81.8346 1192.67 74.4106 1182.94 69.2906C1173.21 64.1706 1162.2 61.6106 1149.66 61.6106C1137.12 61.6106 1126.11 64.4266 1116.38 70.0586C1106.65 75.6906 1099.23 83.3706 1093.85 93.6106ZM1186.27 114.347H1115.87C1116.89 105.131 1120.48 97.9626 1127.13 92.3306C1133.79 86.6986 1141.47 83.8826 1150.68 83.8826C1160.41 83.8826 1168.35 86.6986 1174.75 92.0746C1181.15 97.4506 1184.99 104.875 1186.27 114.347Z" fill="#111111"/>
<path d="M1309.23 63.1467H1303.08C1292.84 63.1467 1284.91 64.9387 1279.02 68.5227C1272.88 72.1067 1268.01 76.7147 1264.43 82.8587L1261.36 63.1467H1236.78V194.219H1264.43V128.427C1264.43 117.163 1266.99 107.691 1272.11 100.267C1277.23 92.8427 1285.42 89.0027 1296.94 89.0027H1309.23V63.1467Z" fill="#111111"/>
<path d="M1519.51 15.0188H1491.86V81.3228C1487.26 75.1788 1481.62 70.5708 1474.46 66.9868C1467.29 63.4028 1458.84 61.6108 1449.37 61.6108C1437.59 61.6108 1426.84 64.4268 1417.62 70.0588C1408.15 75.6908 1400.73 83.3708 1395.35 93.6108C1389.98 103.851 1387.42 115.371 1387.42 128.683C1387.42 142.507 1389.98 154.283 1395.35 164.523C1400.47 174.763 1407.9 182.443 1417.37 187.819C1426.58 193.195 1437.34 195.755 1449.37 195.755C1467.29 195.755 1481.62 188.843 1492.12 174.507L1495.45 194.219H1519.51V15.0188ZM1481.62 160.427C1474.46 168.619 1465.24 172.459 1453.98 172.459C1442.46 172.459 1433.24 168.619 1426.33 160.427C1419.16 152.235 1415.83 141.739 1415.83 128.683C1415.83 115.883 1419.16 105.643 1426.33 97.4508C1433.24 89.2588 1442.46 85.1628 1453.98 85.1628C1465.24 85.1628 1474.46 89.2588 1481.62 97.4508C1488.54 105.643 1492.12 116.139 1492.12 129.195C1492.12 141.995 1488.54 152.491 1481.62 160.427Z" fill="#111111"/>
<path d="M1572.39 15.5307C1569.06 12.4587 1564.96 10.6667 1560.35 10.6667C1555.49 10.6667 1551.39 12.4587 1548.32 15.5307C1544.99 18.6027 1543.46 22.6987 1543.46 27.3067C1543.46 32.1707 1544.99 36.2667 1548.32 39.3387C1551.39 42.4107 1555.49 43.9467 1560.35 43.9467C1564.96 43.9467 1569.06 42.4107 1572.39 39.3387C1575.46 36.2667 1577.25 32.1707 1577.25 27.3067C1577.25 22.6987 1575.46 18.6027 1572.39 15.5307ZM1546.53 63.1468V194.219H1574.18V63.1468H1546.53Z" fill="#111111"/>
<path d="M1728.51 63.1466H1704.45L1701.38 83.6266C1696.77 76.9706 1691.14 71.5946 1683.97 67.4986C1676.8 63.6586 1668.1 61.6106 1658.37 61.6106C1646.59 61.6106 1635.84 64.4266 1626.62 70.0586C1617.15 75.6906 1609.73 83.3706 1604.35 93.3546C1598.98 103.595 1596.42 115.115 1596.42 128.171C1596.42 141.995 1598.98 153.771 1604.35 163.755C1609.47 173.739 1616.9 181.419 1626.37 186.795C1635.58 192.171 1646.34 194.731 1658.37 194.731C1677.31 194.731 1691.39 187.563 1701.12 173.227V187.819C1701.12 212.395 1688.58 224.427 1663.49 224.427C1653.76 224.427 1645.82 222.635 1639.68 218.539C1633.54 214.443 1629.44 208.811 1627.9 201.387H1599.74C1600.77 215.979 1606.91 227.243 1618.18 235.179C1629.18 243.115 1643.52 246.955 1661.44 246.955C1684.22 246.955 1701.12 242.091 1712.13 231.851C1722.88 221.611 1728.51 207.275 1728.51 188.843V63.1466ZM1690.62 159.659C1683.46 167.595 1674.24 171.435 1662.98 171.435C1651.46 171.435 1642.24 167.595 1635.33 159.403C1628.16 151.467 1624.83 140.971 1624.83 128.171C1624.83 115.371 1628.16 105.131 1635.33 96.9386C1642.24 89.0026 1651.46 84.9066 1662.98 84.9066C1674.24 84.9066 1683.46 89.0026 1690.62 97.1946C1697.54 105.387 1701.12 115.883 1701.12 128.683C1701.12 141.483 1697.54 151.723 1690.62 159.659Z" fill="#111111"/>
<path d="M1781.39 15.5307C1778.06 12.4587 1773.96 10.6667 1769.35 10.6667C1764.49 10.6667 1760.39 12.4587 1757.32 15.5307C1753.99 18.6027 1752.46 22.6987 1752.46 27.3067C1752.46 32.1707 1753.99 36.2667 1757.32 39.3387C1760.39 42.4107 1764.49 43.9467 1769.35 43.9467C1773.96 43.9467 1778.06 42.4107 1781.39 39.3387C1784.46 36.2667 1786.25 32.1707 1786.25 27.3067C1786.25 22.6987 1784.46 18.6027 1781.39 15.5307ZM1755.53 63.1468V194.219H1783.18V63.1468H1755.53Z" fill="#111111"/>
<path d="M1818.73 87.4668V158.635C1818.73 170.923 1821.54 179.883 1827.18 185.515C1832.81 191.403 1842.02 194.219 1854.57 194.219H1881.19V169.899H1860.2C1855.08 169.899 1851.75 168.875 1849.7 166.827C1847.66 164.779 1846.63 160.939 1846.63 155.819V87.4668H1878.12V63.1468H1846.63V26.5388H1818.73V63.1468H1795.94V87.4668H1818.73Z" fill="#111111"/>
<path d="M2019.97 170.155H2014.59C2008.71 170.155 2005.89 167.083 2005.89 160.939V109.227C2005.89 93.8666 2001.03 82.0906 1991.55 73.8986C1981.83 65.7066 1968.26 61.6106 1950.85 61.6106C1934.21 61.6106 1920.9 65.4506 1910.66 72.6186C1900.42 79.7866 1894.53 90.0266 1893.25 103.083H1920.39C1921.41 97.4506 1924.48 92.8426 1929.6 89.2586C1934.72 85.6746 1941.38 83.8826 1949.57 83.8826C1958.53 83.8826 1965.7 86.1866 1970.82 90.2826C1975.94 94.3786 1978.5 100.267 1978.5 107.435V115.371H1945.47C1927.04 115.371 1913.22 119.211 1903.75 126.379C1894.02 133.547 1889.41 144.043 1889.41 157.355C1889.41 169.387 1893.76 178.859 1902.72 185.515C1911.43 192.427 1923.2 195.755 1938.05 195.755C1956.99 195.755 1971.33 188.331 1981.31 173.227C1981.31 180.139 1983.11 185.259 1986.95 188.843C1990.53 192.427 1996.67 194.219 2005.38 194.219H2019.97V170.155ZM1978.5 135.851V140.459C1978.24 150.699 1974.91 158.891 1968.51 165.035C1962.11 171.179 1953.15 174.251 1941.89 174.251C1934.21 174.251 1928.32 172.715 1923.97 169.131C1919.62 165.803 1917.57 161.195 1917.57 155.563C1917.57 149.163 1919.87 144.299 1924.48 140.971C1929.09 137.643 1935.49 135.851 1944.19 135.851H1978.5Z" fill="#111111"/>
<path d="M2035.03 15.0188V194.219H2062.68V15.0188H2035.03Z" fill="#111111"/>
<path d="M545.387 271.531C542.059 268.459 537.963 266.667 533.355 266.667C528.491 266.667 524.395 268.459 521.323 271.531C517.995 274.603 516.459 278.699 516.459 283.307C516.459 288.171 517.995 292.267 521.323 295.339C524.395 298.411 528.491 299.947 533.355 299.947C537.963 299.947 542.059 298.411 545.387 295.339C548.459 292.267 550.251 288.171 550.251 283.307C550.251 278.699 548.459 274.603 545.387 271.531ZM519.531 319.147V450.219H547.179V319.147H519.531Z" fill="#111111"/>
<path d="M681.289 331.947C671.561 322.475 658.761 317.611 643.401 317.611C625.225 317.611 611.145 324.011 601.417 336.299L598.345 319.147H574.281V450.219H601.929V384.171C601.929 370.859 605.001 360.619 611.145 352.939C617.289 345.259 625.993 341.419 637.001 341.419C647.241 341.419 654.921 344.747 660.297 351.147C665.417 357.803 668.233 367.275 668.233 379.563V450.219H696.137V378.027C696.137 357.035 691.017 341.675 681.289 331.947Z" fill="#111111"/>
<path d="M729.729 343.467V414.635C729.729 426.923 732.545 435.883 738.177 441.515C743.809 447.403 753.025 450.219 765.569 450.219H792.193V425.899H771.201C766.081 425.899 762.753 424.875 760.705 422.827C758.657 420.779 757.633 416.939 757.633 411.819V343.467H789.121V319.147H757.633V282.539H729.729V319.147H706.945V343.467H729.729Z" fill="#111111"/>
<path d="M807.353 349.611C801.977 359.851 799.417 371.627 799.417 384.939C799.417 398.251 801.977 410.027 807.609 420.011C813.241 430.251 820.921 437.931 831.161 443.563C841.401 449.195 853.177 451.755 867.001 451.755C882.617 451.755 895.673 447.659 906.169 438.955C916.665 430.507 923.065 419.499 925.625 406.187H897.977C895.929 413.611 892.089 419.243 886.457 423.339C880.569 427.435 873.401 429.227 864.953 429.227C854.201 429.227 845.497 425.899 839.097 419.243C832.441 412.587 828.857 403.627 828.345 392.107V390.571H927.161C927.673 386.987 927.929 383.659 927.929 380.075C927.673 367.531 924.857 356.523 919.225 347.051C913.593 337.835 906.169 330.411 896.441 325.291C886.713 320.171 875.705 317.611 863.161 317.611C850.617 317.611 839.609 320.427 829.881 326.059C820.153 331.691 812.729 339.371 807.353 349.611ZM899.769 370.347H829.369C830.393 361.131 833.977 353.963 840.633 348.331C847.289 342.699 854.969 339.883 864.185 339.883C873.913 339.883 881.849 342.699 888.249 348.075C894.649 353.451 898.489 360.875 899.769 370.347Z" fill="#111111"/>
<path d="M950.281 271.019V450.219H977.929V271.019H950.281Z" fill="#111111"/>
<path d="M1005.03 271.019V450.219H1032.68V271.019H1005.03Z" fill="#111111"/>
<path d="M1085.64 271.531C1082.31 268.459 1078.21 266.667 1073.6 266.667C1068.74 266.667 1064.64 268.459 1061.57 271.531C1058.24 274.603 1056.71 278.699 1056.71 283.307C1056.71 288.171 1058.24 292.267 1061.57 295.339C1064.64 298.411 1068.74 299.947 1073.6 299.947C1078.21 299.947 1082.31 298.411 1085.64 295.339C1088.71 292.267 1090.5 288.171 1090.5 283.307C1090.5 278.699 1088.71 274.603 1085.64 271.531ZM1059.78 319.147V450.219H1087.43V319.147H1059.78Z" fill="#111111"/>
<path d="M1241.76 319.147H1217.7L1214.63 339.627C1210.02 332.971 1204.39 327.595 1197.22 323.499C1190.05 319.659 1181.35 317.611 1171.62 317.611C1159.84 317.611 1149.09 320.427 1139.87 326.059C1130.4 331.691 1122.98 339.371 1117.6 349.355C1112.23 359.595 1109.67 371.115 1109.67 384.171C1109.67 397.995 1112.23 409.771 1117.6 419.755C1122.72 429.739 1130.15 437.419 1139.62 442.795C1148.83 448.171 1159.59 450.731 1171.62 450.731C1190.56 450.731 1204.64 443.563 1214.37 429.227V443.819C1214.37 468.395 1201.83 480.427 1176.74 480.427C1167.01 480.427 1159.07 478.635 1152.93 474.539C1146.79 470.443 1142.69 464.811 1141.15 457.387H1112.99C1114.02 471.979 1120.16 483.243 1131.43 491.179C1142.43 499.115 1156.77 502.955 1174.69 502.955C1197.47 502.955 1214.37 498.091 1225.38 487.851C1236.13 477.611 1241.76 463.275 1241.76 444.843V319.147ZM1203.87 415.659C1196.71 423.595 1187.49 427.435 1176.23 427.435C1164.71 427.435 1155.49 423.595 1148.58 415.403C1141.41 407.467 1138.08 396.971 1138.08 384.171C1138.08 371.371 1141.41 361.131 1148.58 352.939C1155.49 345.003 1164.71 340.907 1176.23 340.907C1187.49 340.907 1196.71 345.003 1203.87 353.195C1210.79 361.387 1214.37 371.883 1214.37 384.683C1214.37 397.483 1210.79 407.723 1203.87 415.659Z" fill="#111111"/>
<path d="M1271.85 349.611C1266.48 359.851 1263.92 371.627 1263.92 384.939C1263.92 398.251 1266.48 410.027 1272.11 420.011C1277.74 430.251 1285.42 437.931 1295.66 443.563C1305.9 449.195 1317.68 451.755 1331.5 451.755C1347.12 451.755 1360.17 447.659 1370.67 438.955C1381.16 430.507 1387.56 419.499 1390.12 406.187H1362.48C1360.43 413.611 1356.59 419.243 1350.96 423.339C1345.07 427.435 1337.9 429.227 1329.45 429.227C1318.7 429.227 1310 425.899 1303.6 419.243C1296.94 412.587 1293.36 403.627 1292.84 392.107V390.571H1391.66C1392.17 386.987 1392.43 383.659 1392.43 380.075C1392.17 367.531 1389.36 356.523 1383.72 347.051C1378.09 337.835 1370.67 330.411 1360.94 325.291C1351.21 320.171 1340.2 317.611 1327.66 317.611C1315.12 317.611 1304.11 320.427 1294.38 326.059C1284.65 331.691 1277.23 339.371 1271.85 349.611ZM1364.27 370.347H1293.87C1294.89 361.131 1298.48 353.963 1305.13 348.331C1311.79 342.699 1319.47 339.883 1328.68 339.883C1338.41 339.883 1346.35 342.699 1352.75 348.075C1359.15 353.451 1362.99 360.875 1364.27 370.347Z" fill="#111111"/>
<path d="M1521.79 331.947C1512.06 322.475 1499.26 317.611 1483.9 317.611C1465.72 317.611 1451.64 324.011 1441.92 336.299L1438.84 319.147H1414.78V450.219H1442.43V384.171C1442.43 370.859 1445.5 360.619 1451.64 352.939C1457.79 345.259 1466.49 341.419 1477.5 341.419C1487.74 341.419 1495.42 344.747 1500.8 351.147C1505.92 357.803 1508.73 367.275 1508.73 379.563V450.219H1536.64V378.027C1536.64 357.035 1531.52 341.675 1521.79 331.947Z" fill="#111111"/>
<path d="M1662.9 438.955C1673.4 430.251 1680.05 418.475 1682.61 403.115H1654.45C1652.66 410.795 1649.08 416.939 1643.44 421.547C1637.81 426.155 1630.64 428.203 1622.2 428.203C1610.93 428.203 1601.97 424.363 1595.32 416.171C1588.66 407.979 1585.33 397.483 1585.33 384.427C1585.33 371.627 1588.66 361.387 1595.32 353.195C1601.97 345.259 1610.93 341.163 1622.2 341.163C1630.39 341.163 1637.3 343.467 1642.93 347.819C1648.56 352.427 1652.15 358.315 1654.2 365.739H1682.61C1680.05 350.891 1673.4 339.371 1663.16 330.667C1652.66 321.963 1639.35 317.611 1622.96 317.611C1609.65 317.611 1598.13 320.427 1588.15 326.059C1578.16 331.691 1570.48 339.371 1565.11 349.355C1559.48 359.595 1556.92 371.115 1556.92 384.427C1556.92 397.739 1559.48 409.515 1564.85 419.755C1570.23 429.995 1577.91 437.931 1587.89 443.563C1597.62 449.195 1609.14 451.755 1622.2 451.755C1638.58 451.755 1652.15 447.659 1662.9 438.955Z" fill="#111111"/>
<path d="M1705.6 349.611C1700.23 359.851 1697.67 371.627 1697.67 384.939C1697.67 398.251 1700.23 410.027 1705.86 420.011C1711.49 430.251 1719.17 437.931 1729.41 443.563C1739.65 449.195 1751.43 451.755 1765.25 451.755C1780.87 451.755 1793.92 447.659 1804.42 438.955C1814.91 430.507 1821.31 419.499 1823.87 406.187H1796.23C1794.18 413.611 1790.34 419.243 1784.71 423.339C1778.82 427.435 1771.65 429.227 1763.2 429.227C1752.45 429.227 1743.75 425.899 1737.35 419.243C1730.69 412.587 1727.11 403.627 1726.59 392.107V390.571H1825.41C1825.92 386.987 1826.18 383.659 1826.18 380.075C1825.92 367.531 1823.11 356.523 1817.47 347.051C1811.84 337.835 1804.42 330.411 1794.69 325.291C1784.96 320.171 1773.95 317.611 1761.41 317.611C1748.87 317.611 1737.86 320.427 1728.13 326.059C1718.4 331.691 1710.98 339.371 1705.6 349.611ZM1798.02 370.347H1727.62C1728.64 361.131 1732.23 353.963 1738.88 348.331C1745.54 342.699 1753.22 339.883 1762.43 339.883C1772.16 339.883 1780.1 342.699 1786.5 348.075C1792.9 353.451 1796.74 360.875 1798.02 370.347Z" fill="#111111"/>
</g>
<defs>
<clipPath id="clip0_350_1325">
<rect width="2063" height="512" fill="white"/>
</clipPath>
</defs>
</svg>
