<svg width="17" height="16" viewBox="0 0 17 16" fill="none" xmlns="http://www.w3.org/2000/svg">
<g id="SP_Icons">
<mask id="mask0_4455_16478" style="mask-type:alpha" maskUnits="userSpaceOnUse" x="0" y="0" width="17" height="16">
<rect id="Bounding box" x="0.5" width="16" height="16" fill="#D9D9D9"/>
</mask>
<g mask="url(#mask0_4455_16478)">
<path id="stethoscope" d="M9.4987 14.6673C8.2987 14.6673 7.27648 14.2451 6.43203 13.4007C5.58759 12.5562 5.16536 11.534 5.16536 10.334V9.95065C4.20981 9.7951 3.41536 9.34787 2.78203 8.60898C2.1487 7.8701 1.83203 7.00065 1.83203 6.00065V2.00065H3.83203V1.33398H5.16536V4.00065H3.83203V3.33398H3.16536V6.00065C3.16536 6.73398 3.42648 7.36176 3.9487 7.88398C4.47092 8.40621 5.0987 8.66732 5.83203 8.66732C6.56536 8.66732 7.19314 8.40621 7.71536 7.88398C8.23759 7.36176 8.4987 6.73398 8.4987 6.00065V3.33398H7.83203V4.00065H6.4987V1.33398H7.83203V2.00065H9.83203V6.00065C9.83203 7.00065 9.51536 7.8701 8.88203 8.60898C8.2487 9.34787 7.45425 9.7951 6.4987 9.95065V10.334C6.4987 11.1673 6.79036 11.8757 7.3737 12.459C7.95703 13.0423 8.66536 13.334 9.4987 13.334C10.332 13.334 11.0404 13.0423 11.6237 12.459C12.207 11.8757 12.4987 11.1673 12.4987 10.334V9.21732C12.1098 9.08398 11.7904 8.8451 11.5404 8.50065C11.2904 8.15621 11.1654 7.76732 11.1654 7.33398C11.1654 6.77843 11.3598 6.30621 11.7487 5.91732C12.1376 5.52843 12.6098 5.33398 13.1654 5.33398C13.7209 5.33398 14.1931 5.52843 14.582 5.91732C14.9709 6.30621 15.1654 6.77843 15.1654 7.33398C15.1654 7.76732 15.0404 8.15621 14.7904 8.50065C14.5404 8.8451 14.2209 9.08398 13.832 9.21732V10.334C13.832 11.534 13.4098 12.5562 12.5654 13.4007C11.7209 14.2451 10.6987 14.6673 9.4987 14.6673ZM13.1654 8.00065C13.3543 8.00065 13.5126 7.93676 13.6404 7.80898C13.7681 7.68121 13.832 7.52287 13.832 7.33398C13.832 7.1451 13.7681 6.98676 13.6404 6.85898C13.5126 6.73121 13.3543 6.66732 13.1654 6.66732C12.9765 6.66732 12.8181 6.73121 12.6904 6.85898C12.5626 6.98676 12.4987 7.1451 12.4987 7.33398C12.4987 7.52287 12.5626 7.68121 12.6904 7.80898C12.8181 7.93676 12.9765 8.00065 13.1654 8.00065Z" fill="#1C1B1F"/>
</g>
</g>
</svg>
