<svg width="24" height="24" viewBox="0 0 24 24" fill="none" xmlns="http://www.w3.org/2000/svg">
<path d="M7.45687 14.5594C7.11583 14.5658 6.77686 14.505 6.45931 14.3805C6.14177 14.2559 5.85188 14.07 5.6062 13.8334C5.36052 13.5967 5.16386 13.314 5.02746 13.0014C4.89106 12.6887 4.81759 12.3523 4.81125 12.0112V11.9887C4.82211 11.2973 5.10672 10.6384 5.60267 10.1565C6.09862 9.67465 6.76543 9.4091 7.45687 9.41812C8.14191 9.42216 8.80016 9.68466 9.3 10.1531L11.1075 8.39812C10.1227 7.46303 8.81485 6.94444 7.45687 6.95062C6.10348 6.92399 4.79487 7.43572 3.81855 8.37336C2.84223 9.31101 2.27806 10.5979 2.25 11.9512V11.9887C2.25929 12.6631 2.40136 13.329 2.6681 13.9484C2.93483 14.5679 3.321 15.1287 3.80454 15.5988C4.28808 16.0689 4.85952 16.4392 5.4862 16.6884C6.11288 16.9376 6.78253 17.0609 7.45687 17.0512C8.81571 17.0582 10.1243 16.538 11.1075 15.6L9.30188 13.845C8.79931 14.3078 8.14008 14.5631 7.45687 14.5594Z" fill="currentColor"/>
<path d="M16.4831 6.9375C15.1155 6.93892 13.8003 7.4643 12.8081 8.40563L12.7875 8.42625L9.11438 11.9888L12.8081 15.5813L12.8287 15.6019C13.8163 16.5472 15.133 17.0711 16.5 17.0625C17.8618 17.0815 19.1753 16.5589 20.1518 15.6095C21.1282 14.6601 21.6876 13.3618 21.7069 12C21.6783 10.6383 21.1137 9.34285 20.1356 8.39498C19.1576 7.44712 17.8451 6.92338 16.4831 6.9375ZM16.4831 14.5688C15.7911 14.5705 15.1252 14.3044 14.625 13.8263L12.75 11.9888L14.625 10.1531C15.1254 9.68439 15.7844 9.42189 16.47 9.41813C16.8114 9.41041 17.1509 9.47009 17.4692 9.59375C17.7874 9.7174 18.0782 9.90261 18.3248 10.1388C18.5714 10.3749 18.769 10.6574 18.9063 10.97C19.0436 11.2826 19.1179 11.6193 19.125 11.9606V11.9888C19.1218 12.3301 19.0514 12.6675 18.9177 12.9816C18.784 13.2957 18.5897 13.5803 18.3459 13.8193C18.1021 14.0582 17.8135 14.2467 17.4968 14.374C17.1801 14.5013 16.8413 14.565 16.5 14.5613L16.4831 14.5688Z" fill="currentColor"/>
</svg>
