<svg width="24" height="24" viewBox="0 0 24 24" fill="none" xmlns="http://www.w3.org/2000/svg">
<path d="M7.45687 14.5594C7.11583 14.5659 6.77686 14.5051 6.45931 14.3806C6.14177 14.256 5.85188 14.0701 5.6062 13.8334C5.36052 13.5968 5.16386 13.3141 5.02746 13.0015C4.89106 12.6888 4.81759 12.3524 4.81125 12.0113V11.9888C4.82211 11.2974 5.10672 10.6385 5.60267 10.1566C6.09862 9.67472 6.76543 9.40918 7.45687 9.4182C8.14191 9.42224 8.80016 9.68474 9.3 10.1532L11.1075 8.3982C10.1227 7.46311 8.81485 6.94452 7.45687 6.9507C6.10348 6.92407 4.79487 7.43579 3.81855 8.37344C2.84223 9.31108 2.27806 10.598 2.25 11.9513V11.9888C2.25929 12.6632 2.40136 13.3291 2.6681 13.9485C2.93483 14.5679 3.321 15.1287 3.80454 15.5989C4.28808 16.069 4.85952 16.4393 5.4862 16.6885C6.11288 16.9377 6.78253 17.061 7.45687 17.0513C8.81571 17.0582 10.1243 16.538 11.1075 15.6001L9.30188 13.8451C8.79931 14.3079 8.14008 14.5632 7.45687 14.5594Z" fill="#00A2E0"/>
<path d="M16.482 6.93729C15.1144 6.9387 13.7992 7.46409 12.807 8.40542L12.7864 8.42604L9.11328 11.9885L12.807 15.581L12.8277 15.6017C13.8152 16.547 15.1319 17.0709 16.4989 17.0623C17.8607 17.0813 19.1742 16.5587 20.1507 15.6093C21.1272 14.6599 21.6865 13.3616 21.7058 11.9998C21.6772 10.6381 21.1126 9.34264 20.1345 8.39477C19.1565 7.4469 17.844 6.92316 16.482 6.93729ZM16.482 14.5685C15.79 14.5703 15.1242 14.3042 14.6239 13.826L12.7489 11.9885L14.6239 10.1529C15.1243 9.68418 15.7833 9.42167 16.4689 9.41792C16.8103 9.4102 17.1498 9.46988 17.4681 9.59353C17.7863 9.71719 18.0771 9.9024 18.3237 10.1386C18.5703 10.3747 18.7679 10.6572 18.9052 10.9698C19.0425 11.2824 19.1168 11.619 19.1239 11.9604V11.9885C19.1207 12.3299 19.0503 12.6673 18.9166 12.9814C18.7829 13.2955 18.5886 13.5801 18.3448 13.819C18.101 14.058 17.8124 14.2465 17.4957 14.3738C17.179 14.5011 16.8403 14.5648 16.4989 14.561L16.482 14.5685Z" fill="#00A2E0"/>
</svg>
