<svg width="16" height="16" viewBox="0 0 16 16" fill="none" xmlns="http://www.w3.org/2000/svg">
<g id="SP_Icons">
<mask id="mask0_4455_16455" style="mask-type:alpha" maskUnits="userSpaceOnUse" x="0" y="0" width="16" height="16">
<rect id="Bounding box" width="16" height="16" fill="#D9D9D9"/>
</mask>
<g mask="url(#mask0_4455_16455)">
<path id="data_object" d="M9.33203 13.3327V11.9993H11.332C11.5209 11.9993 11.6793 11.9355 11.807 11.8077C11.9348 11.6799 11.9987 11.5216 11.9987 11.3327V9.99935C11.9987 9.57713 12.1209 9.19379 12.3654 8.84935C12.6098 8.5049 12.932 8.26046 13.332 8.11602V7.88268C12.932 7.73824 12.6098 7.49379 12.3654 7.14935C12.1209 6.8049 11.9987 6.42157 11.9987 5.99935V4.66602C11.9987 4.47713 11.9348 4.31879 11.807 4.19102C11.6793 4.06324 11.5209 3.99935 11.332 3.99935H9.33203V2.66602H11.332C11.8876 2.66602 12.3598 2.86046 12.7487 3.24935C13.1376 3.63824 13.332 4.11046 13.332 4.66602V5.99935C13.332 6.18824 13.3959 6.34657 13.5237 6.47435C13.6515 6.60213 13.8098 6.66602 13.9987 6.66602H14.6654V9.33268H13.9987C13.8098 9.33268 13.6515 9.39657 13.5237 9.52435C13.3959 9.65213 13.332 9.81046 13.332 9.99935V11.3327C13.332 11.8882 13.1376 12.3605 12.7487 12.7493C12.3598 13.1382 11.8876 13.3327 11.332 13.3327H9.33203ZM4.66536 13.3327C4.10981 13.3327 3.63759 13.1382 3.2487 12.7493C2.85981 12.3605 2.66536 11.8882 2.66536 11.3327V9.99935C2.66536 9.81046 2.60148 9.65213 2.4737 9.52435C2.34592 9.39657 2.18759 9.33268 1.9987 9.33268H1.33203V6.66602H1.9987C2.18759 6.66602 2.34592 6.60213 2.4737 6.47435C2.60148 6.34657 2.66536 6.18824 2.66536 5.99935V4.66602C2.66536 4.11046 2.85981 3.63824 3.2487 3.24935C3.63759 2.86046 4.10981 2.66602 4.66536 2.66602H6.66536V3.99935H4.66536C4.47648 3.99935 4.31814 4.06324 4.19036 4.19102C4.06259 4.31879 3.9987 4.47713 3.9987 4.66602V5.99935C3.9987 6.42157 3.87648 6.8049 3.63203 7.14935C3.38759 7.49379 3.06536 7.73824 2.66536 7.88268V8.11602C3.06536 8.26046 3.38759 8.5049 3.63203 8.84935C3.87648 9.19379 3.9987 9.57713 3.9987 9.99935V11.3327C3.9987 11.5216 4.06259 11.6799 4.19036 11.8077C4.31814 11.9355 4.47648 11.9993 4.66536 11.9993H6.66536V13.3327H4.66536Z" fill="#222222"/>
</g>
</g>
</svg>
