<svg width="17" height="16" viewBox="0 0 17 16" fill="none" xmlns="http://www.w3.org/2000/svg">
<g id="SP_Icons">
<mask id="mask0_4455_16524" style="mask-type:alpha" maskUnits="userSpaceOnUse" x="0" y="0" width="17" height="16">
<rect id="Bounding box" x="0.5" width="16" height="16" fill="#D9D9D9"/>
</mask>
<g mask="url(#mask0_4455_16524)">
<path id="database" d="M8.5 14C6.82222 14 5.40278 13.7417 4.24167 13.225C3.08056 12.7083 2.5 12.0778 2.5 11.3333V4.66667C2.5 3.93333 3.08611 3.30556 4.25833 2.78333C5.43056 2.26111 6.84444 2 8.5 2C10.1556 2 11.5694 2.26111 12.7417 2.78333C13.9139 3.30556 14.5 3.93333 14.5 4.66667V11.3333C14.5 12.0778 13.9194 12.7083 12.7583 13.225C11.5972 13.7417 10.1778 14 8.5 14ZM8.5 6.01667C9.48889 6.01667 10.4833 5.875 11.4833 5.59167C12.4833 5.30833 13.0444 5.00556 13.1667 4.68333C13.0444 4.36111 12.4861 4.05556 11.4917 3.76667C10.4972 3.47778 9.5 3.33333 8.5 3.33333C7.48889 3.33333 6.49722 3.475 5.525 3.75833C4.55278 4.04167 3.98889 4.35 3.83333 4.68333C3.98889 5.01667 4.55278 5.32222 5.525 5.6C6.49722 5.87778 7.48889 6.01667 8.5 6.01667ZM8.5 9.33333C8.96667 9.33333 9.41667 9.31111 9.85 9.26667C10.2833 9.22222 10.6972 9.15833 11.0917 9.075C11.4861 8.99167 11.8583 8.88889 12.2083 8.76667C12.5583 8.64444 12.8778 8.50556 13.1667 8.35V6.35C12.8778 6.50556 12.5583 6.64444 12.2083 6.76667C11.8583 6.88889 11.4861 6.99167 11.0917 7.075C10.6972 7.15833 10.2833 7.22222 9.85 7.26667C9.41667 7.31111 8.96667 7.33333 8.5 7.33333C8.03333 7.33333 7.57778 7.31111 7.13333 7.26667C6.68889 7.22222 6.26944 7.15833 5.875 7.075C5.48056 6.99167 5.11111 6.88889 4.76667 6.76667C4.42222 6.64444 4.11111 6.50556 3.83333 6.35V8.35C4.11111 8.50556 4.42222 8.64444 4.76667 8.76667C5.11111 8.88889 5.48056 8.99167 5.875 9.075C6.26944 9.15833 6.68889 9.22222 7.13333 9.26667C7.57778 9.31111 8.03333 9.33333 8.5 9.33333ZM8.5 12.6667C9.01111 12.6667 9.53056 12.6278 10.0583 12.55C10.5861 12.4722 11.0722 12.3694 11.5167 12.2417C11.9611 12.1139 12.3333 11.9694 12.6333 11.8083C12.9333 11.6472 13.1111 11.4833 13.1667 11.3167V9.68333C12.8778 9.83889 12.5583 9.97778 12.2083 10.1C11.8583 10.2222 11.4861 10.325 11.0917 10.4083C10.6972 10.4917 10.2833 10.5556 9.85 10.6C9.41667 10.6444 8.96667 10.6667 8.5 10.6667C8.03333 10.6667 7.57778 10.6444 7.13333 10.6C6.68889 10.5556 6.26944 10.4917 5.875 10.4083C5.48056 10.325 5.11111 10.2222 4.76667 10.1C4.42222 9.97778 4.11111 9.83889 3.83333 9.68333V11.3333C3.88889 11.5 4.06389 11.6611 4.35833 11.8167C4.65278 11.9722 5.02222 12.1139 5.46667 12.2417C5.91111 12.3694 6.4 12.4722 6.93333 12.55C7.46667 12.6278 7.98889 12.6667 8.5 12.6667Z" fill="#222222"/>
</g>
</g>
</svg>
