<svg xmlns="http://www.w3.org/2000/svg" version="1.1" xmlns:xlink="http://www.w3.org/1999/xlink" width="512" height="512" x="0" y="0" viewBox="0 0 25 24" style="enable-background:new 0 0 512 512" xml:space="preserve" class=""><g><g fill="#000" fill-rule="evenodd" clip-rule="evenodd"><path d="M4.637 16a1 1 0 0 1 1 1v2a1 1 0 0 0 1 1h12a1 1 0 0 0 1-1v-2a1 1 0 1 1 2 0v2a3 3 0 0 1-3 3h-12a3 3 0 0 1-3-3v-2a1 1 0 0 1 1-1z" fill="#19615b" opacity="1" data-original="#000000" class=""></path><path d="M6.93 10.293a1 1 0 0 1 1.414 0l4.293 4.293 4.293-4.293a1 1 0 1 1 1.414 1.414l-5 5a1 1 0 0 1-1.414 0l-5-5a1 1 0 0 1 0-1.414z" fill="#19615b" opacity="1" data-original="#000000" class=""></path><path d="M12.637 3a1 1 0 0 1 1 1v12a1 1 0 1 1-2 0V4a1 1 0 0 1 1-1z" fill="#19615b" opacity="1" data-original="#000000" class=""></path></g></g></svg>