<svg width="20" height="20" viewBox="0 0 20 20" fill="none" xmlns="http://www.w3.org/2000/svg">
<g id="Icon" clip-path="url(#clip0_4973_1703)">
<mask id="mask0_4973_1703" style="mask-type:alpha" maskUnits="userSpaceOnUse" x="0" y="0" width="20" height="20">
<rect id="Bounding box" width="20" height="20" fill="#D9D9D9"/>
</mask>
<g mask="url(#mask0_4973_1703)">
<path id="download" d="M9.99992 13.3333L5.83325 9.16665L6.99992 7.95831L9.16659 10.125V3.33331H10.8333V10.125L12.9999 7.95831L14.1666 9.16665L9.99992 13.3333ZM4.99992 16.6666C4.54159 16.6666 4.14922 16.5035 3.82284 16.1771C3.49645 15.8507 3.33325 15.4583 3.33325 15V12.5H4.99992V15H14.9999V12.5H16.6666V15C16.6666 15.4583 16.5034 15.8507 16.177 16.1771C15.8506 16.5035 15.4583 16.6666 14.9999 16.6666H4.99992Z" fill="#222222"/>
</g>
</g>
<defs>
<clipPath id="clip0_4973_1703">
<rect width="20" height="20" fill="white"/>
</clipPath>
</defs>
</svg>
