<svg width="16" height="16" viewBox="0 0 16 16" fill="none" xmlns="http://www.w3.org/2000/svg">
<g id="Icon">
<mask id="mask0_4898_1732" style="mask-type:alpha" maskUnits="userSpaceOnUse" x="0" y="0" width="16" height="16">
<rect id="Bounding box" width="16" height="16" fill="#D9D9D9"/>
</mask>
<g mask="url(#mask0_4898_1732)">
<path id="filter_alt" d="M7.33322 13.3333C7.14434 13.3333 6.986 13.2694 6.85822 13.1417C6.73045 13.0139 6.66656 12.8555 6.66656 12.6667V8.66666L2.79989 3.73332C2.63322 3.5111 2.60822 3.27777 2.72489 3.03332C2.84156 2.78888 3.04434 2.66666 3.33322 2.66666H12.6666C12.9554 2.66666 13.1582 2.78888 13.2749 3.03332C13.3916 3.27777 13.3666 3.5111 13.1999 3.73332L9.33322 8.66666V12.6667C9.33322 12.8555 9.26934 13.0139 9.14156 13.1417C9.01378 13.2694 8.85545 13.3333 8.66656 13.3333H7.33322ZM7.99989 8.19999L11.2999 3.99999H4.69989L7.99989 8.19999Z" fill="#1C1B1F"/>
</g>
</g>
</svg>
