<svg width="24" height="24" viewBox="0 0 24 24" fill="none" xmlns="http://www.w3.org/2000/svg">
<g clip-path="url(#clip0_3192_5430)">
<path fill-rule="evenodd" clip-rule="evenodd" d="M11.9702 2C6.45694 2 2 6.58333 2 12.2535C2 16.786 4.85571 20.6227 8.81735 21.9806C9.31265 22.0827 9.49408 21.76 9.49408 21.4885C9.49408 21.2508 9.47775 20.436 9.47775 19.5871C6.70429 20.1983 6.12673 18.3648 6.12673 18.3648C5.68102 17.1765 5.02061 16.871 5.02061 16.871C4.11286 16.2429 5.08673 16.2429 5.08673 16.2429C6.09367 16.3108 6.62204 17.2954 6.62204 17.2954C7.51327 18.8571 8.94939 18.4158 9.52714 18.1442C9.60959 17.4821 9.87388 17.0237 10.1545 16.7692C7.94245 16.5315 5.6151 15.6488 5.6151 11.7102C5.6151 10.5898 6.01102 9.67312 6.63837 8.96021C6.53939 8.70563 6.19265 7.65292 6.73755 6.24396C6.73755 6.24396 7.57939 5.97229 9.47755 7.29646C10.2902 7.07201 11.1283 6.95784 11.9702 6.95687C12.812 6.95687 13.6702 7.07583 14.4627 7.29646C16.361 5.97229 17.2029 6.24396 17.2029 6.24396C17.7478 7.65292 17.4008 8.70563 17.3018 8.96021C17.9457 9.67312 18.3253 10.5898 18.3253 11.7102C18.3253 15.6488 15.998 16.5144 13.7694 16.7692C14.1327 17.0917 14.4461 17.7027 14.4461 18.6704C14.4461 20.0454 14.4298 21.149 14.4298 21.4883C14.4298 21.76 14.6114 22.0827 15.1065 21.9808C19.0682 20.6225 21.9239 16.786 21.9239 12.2535C21.9402 6.58333 17.4669 2 11.9702 2Z" fill="#222222"/>
</g>
<defs>
<clipPath id="clip0_3192_5430">
<rect width="20" height="20" fill="white" transform="translate(2 2)"/>
</clipPath>
</defs>
</svg>
