<svg width="24" height="24" viewBox="0 0 24 24" fill="none" xmlns="http://www.w3.org/2000/svg">
<mask id="mask0_1740_3734" style="mask-type:alpha" maskUnits="userSpaceOnUse" x="0" y="0" width="24" height="24">
<rect width="24" height="24" transform="matrix(-1 0 0 1 24 0)" fill="#D9D9D9"/>
</mask>
<g mask="url(#mask0_1740_3734)">
<path d="M12 21V19H5V5H12V3H5C4.45 3 3.97917 3.19583 3.5875 3.5875C3.19583 3.97917 3 4.45 3 5V19C3 19.55 3.19583 20.0208 3.5875 20.4125C3.97917 20.8042 4.45 21 5 21H12ZM14 17L15.375 15.55L12.825 13H21V11H12.825L15.375 8.45L14 7L9 12L14 17Z" fill="#1C1B1F"/>
</g>
</svg>
