<?xml version="1.0" encoding="UTF-8" standalone="no"?>
<!-- Created with Inkscape (http://www.inkscape.org/) -->

<svg
   version="1.1"
   id="svg2190"
   xml:space="preserve"
   width="682.66669"
   height="682.66669"
   viewBox="0 0 682.66669 682.66669"
   xmlns="http://www.w3.org/2000/svg"
   xmlns:svg="http://www.w3.org/2000/svg"><defs
     id="defs2194"><clipPath
       clipPathUnits="userSpaceOnUse"
       id="clipPath2204"><path
         d="M 0,512 H 512 V 0 H 0 Z"
         id="path2202" /></clipPath></defs><g
     id="g2196"
     transform="matrix(1.3333333,0,0,-1.3333333,0,682.66667)"><g
       id="g2198"><g
         id="g2200"
         clip-path="url(#clipPath2204)"><g
           id="g2206"
           transform="translate(496,236)"><path
             d="M 0,0 -120,-40 V -221 L 0,-181 Z"
             style="fill:none;stroke:#000000;stroke-width:30;stroke-linecap:round;stroke-linejoin:round;stroke-miterlimit:10;stroke-dasharray:none;stroke-opacity:1"
             id="path2208" /></g><g
           id="g2210"
           transform="translate(256,236)"><path
             d="M 0,0 120,-40 V -221 L 0,-181 Z"
             style="fill:none;stroke:#000000;stroke-width:30;stroke-linecap:round;stroke-linejoin:round;stroke-miterlimit:10;stroke-dasharray:none;stroke-opacity:1"
             id="path2212" /></g><g
           id="g2214"
           transform="translate(496,236)"><path
             d="M 0,0 -120,-40 -240,0 -120,40 Z"
             style="fill:none;stroke:#000000;stroke-width:30;stroke-linecap:round;stroke-linejoin:round;stroke-miterlimit:10;stroke-dasharray:none;stroke-opacity:1"
             id="path2216" /></g><g
           id="g2218"
           transform="translate(256,236)"><path
             d="M 0,0 -120,-40 V -221 L 0,-181 Z"
             style="fill:none;stroke:#000000;stroke-width:30;stroke-linecap:round;stroke-linejoin:round;stroke-miterlimit:10;stroke-dasharray:none;stroke-opacity:1"
             id="path2220" /></g><g
           id="g2222"
           transform="translate(16,236)"><path
             d="M 0,0 120,-40 V -221 L 0,-181 Z"
             style="fill:none;stroke:#000000;stroke-width:30;stroke-linecap:round;stroke-linejoin:round;stroke-miterlimit:10;stroke-dasharray:none;stroke-opacity:1"
             id="path2224" /></g><g
           id="g2226"
           transform="translate(256,236)"><path
             d="M 0,0 -120,-40 -240,0 -120,40 Z"
             style="fill:none;stroke:#000000;stroke-width:30;stroke-linecap:round;stroke-linejoin:round;stroke-miterlimit:10;stroke-dasharray:none;stroke-opacity:1"
             id="path2228" /></g><g
           id="g2230"
           transform="translate(376,457)"><path
             d="M 0,0 -120,-40 V -221 L 0,-181 Z"
             style="fill:none;stroke:#000000;stroke-width:30;stroke-linecap:round;stroke-linejoin:round;stroke-miterlimit:10;stroke-dasharray:none;stroke-opacity:1"
             id="path2232" /></g><g
           id="g2234"
           transform="translate(136,457)"><path
             d="M 0,0 120,-40 V -221 L 0,-181 Z"
             style="fill:none;stroke:#000000;stroke-width:30;stroke-linecap:round;stroke-linejoin:round;stroke-miterlimit:10;stroke-dasharray:none;stroke-opacity:1"
             id="path2236" /></g><g
           id="g2238"
           transform="translate(376,457)"><path
             d="M 0,0 -120,-40 -240,0 -120,40 Z"
             style="fill:none;stroke:#000000;stroke-width:30;stroke-linecap:round;stroke-linejoin:round;stroke-miterlimit:10;stroke-dasharray:none;stroke-opacity:1"
             id="path2240" /></g></g></g></g></svg>
