<svg width="1071" height="180" viewBox="0 0 1071 180" fill="none" xmlns="http://www.w3.org/2000/svg">
<path d="M247.44 133.868C241.405 133.868 235.949 132.835 231.072 130.768C226.277 128.701 222.475 125.725 219.664 121.84C216.853 117.955 215.407 113.367 215.324 108.076H233.924C234.172 111.631 235.412 114.441 237.644 116.508C239.959 118.575 243.1 119.608 247.068 119.608C251.119 119.608 254.301 118.657 256.616 116.756C258.931 114.772 260.088 112.209 260.088 109.068C260.088 106.505 259.303 104.397 257.732 102.744C256.161 101.091 254.177 99.8093 251.78 98.9C249.465 97.908 246.241 96.8333 242.108 95.676C236.487 94.0227 231.899 92.4107 228.344 90.84C224.872 89.1867 221.855 86.748 219.292 83.524C216.812 80.2173 215.572 75.836 215.572 70.38C215.572 65.2547 216.853 60.7907 219.416 56.988C221.979 53.1853 225.575 50.292 230.204 48.308C234.833 46.2413 240.124 45.208 246.076 45.208C255.004 45.208 262.237 47.3987 267.776 51.78C273.397 56.0787 276.497 62.1133 277.076 69.884H257.98C257.815 66.908 256.533 64.4693 254.136 62.568C251.821 60.584 248.721 59.592 244.836 59.592C241.447 59.592 238.719 60.46 236.652 62.196C234.668 63.932 233.676 66.4533 233.676 69.76C233.676 72.0747 234.42 74.0173 235.908 75.588C237.479 77.076 239.38 78.316 241.612 79.308C243.927 80.2173 247.151 81.292 251.284 82.532C256.905 84.1853 261.493 85.8387 265.048 87.492C268.603 89.1453 271.661 91.6253 274.224 94.932C276.787 98.2387 278.068 102.579 278.068 107.952C278.068 112.581 276.869 116.88 274.472 120.848C272.075 124.816 268.561 127.999 263.932 130.396C259.303 132.711 253.805 133.868 247.44 133.868ZM286.174 98.652C286.174 91.5427 287.621 85.3427 290.514 80.052C293.408 74.6787 297.417 70.5453 302.542 67.652C307.668 64.676 313.537 63.188 320.15 63.188C328.665 63.188 335.692 65.3373 341.231 69.636C346.852 73.852 350.613 79.804 352.514 87.492H333.79C332.799 84.516 331.104 82.2013 328.706 80.548C326.392 78.812 323.498 77.944 320.026 77.944C315.066 77.944 311.14 79.7627 308.246 83.4C305.353 86.9547 303.906 92.0387 303.906 98.652C303.906 105.183 305.353 110.267 308.246 113.904C311.14 117.459 315.066 119.236 320.026 119.236C327.053 119.236 331.641 116.095 333.79 109.812H352.514C350.613 117.252 346.852 123.163 341.231 127.544C335.609 131.925 328.582 134.116 320.15 134.116C313.537 134.116 307.668 132.669 302.542 129.776C297.417 126.8 293.408 122.667 290.514 117.376C287.621 112.003 286.174 105.761 286.174 98.652ZM371.556 56.12C368.498 56.12 365.935 55.1693 363.868 53.268C361.884 51.284 360.892 48.8453 360.892 45.952C360.892 43.0587 361.884 40.6613 363.868 38.76C365.935 36.776 368.498 35.784 371.556 35.784C374.615 35.784 377.136 36.776 379.12 38.76C381.187 40.6613 382.22 43.0587 382.22 45.952C382.22 48.8453 381.187 51.284 379.12 53.268C377.136 55.1693 374.615 56.12 371.556 56.12ZM380.112 64.304V133H362.752V64.304H380.112ZM458.644 97.164C458.644 99.644 458.479 101.876 458.148 103.86H407.928C408.341 108.82 410.077 112.705 413.136 115.516C416.195 118.327 419.956 119.732 424.42 119.732C430.868 119.732 435.456 116.963 438.184 111.424H456.908C454.924 118.037 451.121 123.493 445.5 127.792C439.879 132.008 432.976 134.116 424.792 134.116C418.179 134.116 412.227 132.669 406.936 129.776C401.728 126.8 397.636 122.625 394.66 117.252C391.767 111.879 390.32 105.679 390.32 98.652C390.32 91.5427 391.767 85.3013 394.66 79.928C397.553 74.5547 401.604 70.4213 406.812 67.528C412.02 64.6347 418.013 63.188 424.792 63.188C431.323 63.188 437.151 64.5933 442.276 67.404C447.484 70.2147 451.493 74.224 454.304 79.432C457.197 84.5573 458.644 90.468 458.644 97.164ZM440.664 92.204C440.581 87.74 438.969 84.1853 435.828 81.54C432.687 78.812 428.843 77.448 424.296 77.448C419.997 77.448 416.36 78.7707 413.384 81.416C410.491 83.9787 408.713 87.5747 408.052 92.204H440.664ZM506.903 63.312C515.087 63.312 521.701 65.916 526.743 71.124C531.786 76.2493 534.307 83.4413 534.307 92.7V133H516.947V95.056C516.947 89.6 515.583 85.4253 512.855 82.532C510.127 79.556 506.407 78.068 501.695 78.068C496.901 78.068 493.098 79.556 490.287 82.532C487.559 85.4253 486.195 89.6 486.195 95.056V133H468.835V64.304H486.195V72.86C488.51 69.884 491.445 67.5693 494.999 65.916C498.637 64.18 502.605 63.312 506.903 63.312ZM543.872 98.652C543.872 91.5427 545.318 85.3427 548.212 80.052C551.105 74.6787 555.114 70.5453 560.24 67.652C565.365 64.676 571.234 63.188 577.848 63.188C586.362 63.188 593.389 65.3373 598.928 69.636C604.549 73.852 608.31 79.804 610.212 87.492H591.488C590.496 84.516 588.801 82.2013 586.404 80.548C584.089 78.812 581.196 77.944 577.724 77.944C572.764 77.944 568.837 79.7627 565.944 83.4C563.05 86.9547 561.604 92.0387 561.604 98.652C561.604 105.183 563.05 110.267 565.944 113.904C568.837 117.459 572.764 119.236 577.724 119.236C584.75 119.236 589.338 116.095 591.488 109.812H610.212C608.31 117.252 604.549 123.163 598.928 127.544C593.306 131.925 586.28 134.116 577.848 134.116C571.234 134.116 565.365 132.669 560.24 129.776C555.114 126.8 551.105 122.667 548.212 117.376C545.318 112.003 543.872 105.761 543.872 98.652ZM684.309 97.164C684.309 99.644 684.144 101.876 683.813 103.86H633.593C634.007 108.82 635.743 112.705 638.801 115.516C641.86 118.327 645.621 119.732 650.085 119.732C656.533 119.732 661.121 116.963 663.849 111.424H682.573C680.589 118.037 676.787 123.493 671.165 127.792C665.544 132.008 658.641 134.116 650.457 134.116C643.844 134.116 637.892 132.669 632.601 129.776C627.393 126.8 623.301 122.625 620.325 117.252C617.432 111.879 615.985 105.679 615.985 98.652C615.985 91.5427 617.432 85.3013 620.325 79.928C623.219 74.5547 627.269 70.4213 632.477 67.528C637.685 64.6347 643.679 63.188 650.457 63.188C656.988 63.188 662.816 64.5933 667.941 67.404C673.149 70.2147 677.159 74.224 679.969 79.432C682.863 84.5573 684.309 90.468 684.309 97.164ZM666.329 92.204C666.247 87.74 664.635 84.1853 661.493 81.54C658.352 78.812 654.508 77.448 649.961 77.448C645.663 77.448 642.025 78.7707 639.049 81.416C636.156 83.9787 634.379 87.5747 633.717 92.204H666.329ZM784.684 73.232C784.684 77.8613 783.568 82.2013 781.336 86.252C779.186 90.3027 775.756 93.568 771.044 96.048C766.414 98.528 760.545 99.768 753.436 99.768H738.928V133H721.568V46.448H753.436C760.132 46.448 765.836 47.6053 770.548 49.92C775.26 52.2347 778.773 55.4173 781.088 59.468C783.485 63.5187 784.684 68.1067 784.684 73.232ZM752.692 85.756C757.486 85.756 761.041 84.6813 763.356 82.532C765.67 80.3 766.828 77.2 766.828 73.232C766.828 64.8 762.116 60.584 752.692 60.584H738.928V85.756H752.692ZM821.313 134.116C814.7 134.116 808.748 132.669 803.457 129.776C798.166 126.8 793.992 122.625 790.933 117.252C787.957 111.879 786.469 105.679 786.469 98.652C786.469 91.6253 787.998 85.4253 791.057 80.052C794.198 74.6787 798.456 70.5453 803.829 67.652C809.202 64.676 815.196 63.188 821.809 63.188C828.422 63.188 834.416 64.676 839.789 67.652C845.162 70.5453 849.378 74.6787 852.437 80.052C855.578 85.4253 857.149 91.6253 857.149 98.652C857.149 105.679 855.537 111.879 852.313 117.252C849.172 122.625 844.873 126.8 839.417 129.776C834.044 132.669 828.009 134.116 821.313 134.116ZM821.313 118.988C824.454 118.988 827.389 118.244 830.117 116.756C832.928 115.185 835.16 112.871 836.813 109.812C838.466 106.753 839.293 103.033 839.293 98.652C839.293 92.1213 837.557 87.12 834.085 83.648C830.696 80.0933 826.521 78.316 821.561 78.316C816.601 78.316 812.426 80.0933 809.037 83.648C805.73 87.12 804.077 92.1213 804.077 98.652C804.077 105.183 805.689 110.225 808.913 113.78C812.22 117.252 816.353 118.988 821.313 118.988ZM884.763 74.968C886.995 71.3307 889.889 68.4787 893.443 66.412C897.081 64.3453 901.214 63.312 905.843 63.312V81.54H901.255C895.799 81.54 891.666 82.8213 888.855 85.384C886.127 87.9467 884.763 92.4107 884.763 98.776V133H867.403V64.304H884.763V74.968ZM937.748 78.564V111.796C937.748 114.111 938.285 115.805 939.36 116.88C940.517 117.872 942.419 118.368 945.064 118.368H953.124V133H942.212C927.58 133 920.264 125.891 920.264 111.672V78.564H912.08V64.304H920.264V47.316H937.748V64.304H953.124V78.564H937.748ZM958.666 98.404C958.666 91.46 960.03 85.3013 962.758 79.928C965.569 74.5547 969.33 70.4213 974.042 67.528C978.837 64.6347 984.169 63.188 990.038 63.188C995.164 63.188 999.628 64.2213 1003.43 66.288C1007.32 68.3547 1010.42 70.9587 1012.73 74.1V64.304H1030.21V133H1012.73V122.956C1010.5 126.18 1007.4 128.867 1003.43 131.016C999.545 133.083 995.04 134.116 989.914 134.116C984.128 134.116 978.837 132.628 974.042 129.652C969.33 126.676 965.569 122.501 962.758 117.128C960.03 111.672 958.666 105.431 958.666 98.404ZM1012.73 98.652C1012.73 94.436 1011.9 90.84 1010.25 87.864C1008.6 84.8053 1006.36 82.4907 1003.55 80.92C1000.74 79.2667 997.726 78.44 994.502 78.44C991.278 78.44 988.302 79.2253 985.574 80.796C982.846 82.3667 980.614 84.6813 978.878 87.74C977.225 90.716 976.398 94.2707 976.398 98.404C976.398 102.537 977.225 106.175 978.878 109.316C980.614 112.375 982.846 114.731 985.574 116.384C988.385 118.037 991.361 118.864 994.502 118.864C997.726 118.864 1000.74 118.079 1003.55 116.508C1006.36 114.855 1008.6 112.54 1010.25 109.564C1011.9 106.505 1012.73 102.868 1012.73 98.652ZM1062.05 41.24V133H1044.69V41.24H1062.05Z" fill="#19615B"/>
<path fill-rule="evenodd" clip-rule="evenodd" d="M112.396 35.3723C128.437 38.19 143.454 43.9813 156.857 52.1568V64.4076C141.036 53.5483 122.441 46.4363 102.353 44.3516C105.366 41.0535 108.725 38.0406 112.396 35.3723ZM67.6038 35.3723C51.5628 38.19 36.5459 43.9813 23.1426 52.1568V64.4076C38.9637 53.5483 57.5582 46.4363 77.646 44.3516C74.6335 41.0535 71.2747 38.0406 67.6038 35.3723ZM87.8912 59.164C63.1902 59.6607 40.626 68.865 23.1426 83.8328V97.9717C39.9931 80.3815 63.7173 69.4286 89.9997 69.4286C116.282 69.4286 140.006 80.3815 156.857 97.9717V83.8328C139.373 68.865 116.809 59.6607 92.1083 59.164C91.349 60.6583 90.6455 62.1817 89.9997 63.7311C89.3539 62.1817 88.6504 60.6583 87.8912 59.164ZM156.857 123.488C143.527 100.397 118.578 84.8571 89.9997 84.8571C61.4213 84.8571 36.4724 100.397 23.1426 123.489V126C23.1426 127.829 24.1141 129.521 25.6941 130.442L29.8165 132.847C40.6474 110.529 63.5267 95.1428 89.9997 95.1428C116.473 95.1428 139.352 110.529 150.183 132.847L154.305 130.442C155.885 129.521 156.857 127.829 156.857 126V123.488ZM136.802 140.652C128.694 122.904 110.787 110.571 89.9997 110.571C69.2124 110.571 51.3056 122.904 43.1973 140.652L52.1396 145.869C58.4129 131.164 73.0026 120.857 89.9997 120.857C106.997 120.857 121.587 131.164 127.86 145.869L136.802 140.652Z" fill="#24AEA3"/>
<path fill-rule="evenodd" clip-rule="evenodd" d="M25.724 13.5404C24.1272 14.4576 23.1426 16.1585 23.1426 18V126C23.1426 127.829 24.1141 129.521 25.6941 130.442L56.7901 148.582C65.76 153.814 72.9471 161.302 77.8023 170.09C78.5369 171.419 79.9141 172.286 81.433 172.286H98.5664C100.085 172.286 101.463 171.419 102.197 170.09C107.052 161.302 114.239 153.814 123.209 148.582L154.305 130.442C155.885 129.521 156.857 127.829 156.857 126V18C156.857 16.1585 155.872 14.4576 154.275 13.5404C152.679 12.6232 150.713 12.6298 149.123 13.5577L118.027 31.6971C105.238 39.1568 95.5164 50.496 89.9997 63.7311C84.483 50.496 74.7609 39.1568 61.9728 31.6971L30.8768 13.5577C29.2861 12.6298 27.3208 12.6232 25.724 13.5404ZM84.8569 89.4469V161.816C79.2138 152.856 71.4321 145.215 61.9728 139.697L33.4283 123.046V26.9539L56.7902 40.5817C74.1699 50.7198 84.8569 69.3263 84.8569 89.4469ZM118.027 139.697C108.567 145.215 100.786 152.856 95.1426 161.816V89.4469C95.1426 69.3263 105.83 50.7198 123.209 40.5817L146.571 26.9539V123.046L118.027 139.697Z" fill="#24AEA3"/>
</svg>
