<svg width="224" height="28" viewBox="0 0 224 28" fill="none" xmlns="http://www.w3.org/2000/svg">
<path fill-rule="evenodd" clip-rule="evenodd" d="M0.903226 0C5.83015 0 9.42645 2.60091 11.4867 4.63307C12.0728 5.21118 12.5273 5.8673 12.871 6.56931C13.2147 5.8673 13.6691 5.21118 14.2552 4.63307C16.3155 2.60091 19.9118 0 24.8387 0H25.7419V22.0161H24.8387C20.9956 22.0161 18.0512 23.4876 16.1264 24.8763C15.0943 25.621 14.4255 26.7224 14.0742 28H11.6677C11.3164 26.7224 10.6477 25.621 9.61554 24.8763C7.69077 23.4876 4.74639 22.0161 0.903226 22.0161H0V0H0.903226ZM11.9677 24.6373V19.4752C10.2745 19.6864 8.76312 20.4834 7.643 21.6571C8.82508 22.1892 9.83792 22.8092 10.6725 23.4114C11.1717 23.7716 11.6013 24.1847 11.9677 24.6373ZM13.7742 24.6373V19.4752C15.4675 19.6864 16.9788 20.4834 18.0989 21.6571C16.9169 22.1892 15.904 22.8092 15.0694 23.4114C14.5702 23.7716 14.1406 24.1847 13.7742 24.6373ZM13.7742 17.6575C16.2431 17.9026 18.4196 19.1419 19.8976 20.9694C20.7858 20.688 21.7464 20.4673 22.7768 20.3378C20.8441 17.3087 17.56 15.2254 13.7742 14.9374V17.6575ZM23.9355 14.7328V18.8243C21.6445 15.589 17.9702 13.4026 13.7742 13.1264V10.821C13.7742 10.684 13.7769 10.5477 13.7823 10.4122C17.6963 10.6284 21.2412 12.2291 23.9355 14.7328ZM11.9677 10.821V13.1264C7.7717 13.4026 4.09743 15.589 1.80645 18.8243V14.7328C4.50073 12.2291 8.04563 10.6284 11.9597 10.4122C11.9651 10.5477 11.9677 10.684 11.9677 10.821ZM5.84436 20.9694C4.95614 20.688 3.99552 20.4673 2.96512 20.3378C4.89786 17.3087 8.18189 15.2254 11.9677 14.9374V17.6575C9.49882 17.9026 7.32236 19.1419 5.84436 20.9694ZM11.7057 8.6176C7.98816 8.85428 4.57629 10.2154 1.80645 12.3646V9.05945C4.33049 7.46804 7.22108 6.40501 10.3229 6.02565C11.0019 6.73681 11.4509 7.62761 11.7057 8.6176ZM8.54804 4.47785C6.14275 4.94417 3.87369 5.79225 1.80645 6.95648V1.84046C4.578 2.05011 6.84386 3.20015 8.54804 4.47785ZM23.9355 12.3646C21.1656 10.2154 17.7538 8.85428 14.0363 8.6176C14.2911 7.62761 14.74 6.73681 15.419 6.02565C18.5209 6.40501 21.4114 7.46804 23.9355 9.05945V12.3646ZM23.9355 6.95648C21.8682 5.79225 19.5992 4.94417 17.1939 4.47784C18.8981 3.20015 21.1639 2.05011 23.9355 1.84046V6.95648Z" fill="#24AEA3"/>
<path d="M222.164 3.07993V23.7999H218.244V3.07993H222.164Z" fill="#19615B"/>
<path d="M199.659 15.9879C199.659 14.4199 199.967 13.0293 200.583 11.8159C201.218 10.6026 202.067 9.66925 203.131 9.01592C204.214 8.36259 205.418 8.03592 206.743 8.03592C207.901 8.03592 208.909 8.26925 209.767 8.73592C210.645 9.20259 211.345 9.79059 211.867 10.4999V8.28792H215.815V23.7999H211.867V21.5319C211.363 22.2599 210.663 22.8666 209.767 23.3519C208.89 23.8186 207.873 24.0519 206.715 24.0519C205.409 24.0519 204.214 23.7159 203.131 23.0439C202.067 22.3719 201.218 21.4293 200.583 20.2159C199.967 18.9839 199.659 17.5746 199.659 15.9879ZM211.867 16.0439C211.867 15.0919 211.681 14.2799 211.307 13.6079C210.934 12.9173 210.43 12.3946 209.795 12.0399C209.161 11.6666 208.479 11.4799 207.751 11.4799C207.023 11.4799 206.351 11.6573 205.735 12.0119C205.119 12.3666 204.615 12.8893 204.223 13.5799C203.85 14.2519 203.663 15.0546 203.663 15.9879C203.663 16.9213 203.85 17.7426 204.223 18.4519C204.615 19.1426 205.119 19.6746 205.735 20.0479C206.37 20.4213 207.042 20.6079 207.751 20.6079C208.479 20.6079 209.161 20.4306 209.795 20.0759C210.43 19.7026 210.934 19.1799 211.307 18.5079C211.681 17.8173 211.867 16.9959 211.867 16.0439Z" fill="#19615B"/>
<path d="M194.936 11.5079V19.0119C194.936 19.5346 195.057 19.9173 195.3 20.1599C195.561 20.3839 195.99 20.4959 196.588 20.4959H198.408V23.7999H195.944C192.64 23.7999 190.988 22.1946 190.988 18.9839V11.5079H189.14V8.28793H190.988V4.45193H194.936V8.28793H198.408V11.5079H194.936Z" fill="#19615B"/>
<path d="M182.971 10.6959C183.475 9.8746 184.129 9.2306 184.931 8.76394C185.753 8.29727 186.686 8.06393 187.731 8.06393V12.1799H186.695C185.463 12.1799 184.53 12.4693 183.895 13.0479C183.279 13.6266 182.971 14.6346 182.971 16.0719V23.7999H179.051V8.28793H182.971V10.6959Z" fill="#19615B"/>
<path d="M168.924 24.0519C167.43 24.0519 166.086 23.7253 164.892 23.0719C163.697 22.3999 162.754 21.4573 162.064 20.2439C161.392 19.0306 161.056 17.6306 161.056 16.0439C161.056 14.4573 161.401 13.0573 162.092 11.8439C162.801 10.6306 163.762 9.69725 164.976 9.04392C166.189 8.37192 167.542 8.03592 169.036 8.03592C170.529 8.03592 171.882 8.37192 173.096 9.04392C174.309 9.69725 175.261 10.6306 175.952 11.8439C176.661 13.0573 177.016 14.4573 177.016 16.0439C177.016 17.6306 176.652 19.0306 175.924 20.2439C175.214 21.4573 174.244 22.3999 173.012 23.0719C171.798 23.7253 170.436 24.0519 168.924 24.0519ZM168.924 20.6359C169.633 20.6359 170.296 20.4679 170.912 20.1319C171.546 19.7773 172.05 19.2546 172.424 18.5639C172.797 17.8733 172.984 17.0333 172.984 16.0439C172.984 14.5693 172.592 13.4399 171.808 12.6559C171.042 11.8533 170.1 11.4519 168.98 11.4519C167.86 11.4519 166.917 11.8533 166.152 12.6559C165.405 13.4399 165.032 14.5693 165.032 16.0439C165.032 17.5186 165.396 18.6573 166.124 19.4599C166.87 20.2439 167.804 20.6359 168.924 20.6359Z" fill="#19615B"/>
<path d="M160.652 10.3039C160.652 11.3493 160.4 12.3293 159.896 13.2439C159.411 14.1586 158.636 14.8959 157.572 15.4559C156.527 16.0159 155.202 16.2959 153.596 16.2959H150.32V23.7999H146.4V4.25592H153.596C155.108 4.25592 156.396 4.51725 157.46 5.03992C158.524 5.56259 159.318 6.28125 159.84 7.19592C160.382 8.11059 160.652 9.14659 160.652 10.3039ZM153.428 13.1319C154.511 13.1319 155.314 12.8893 155.836 12.4039C156.359 11.8999 156.62 11.1999 156.62 10.3039C156.62 8.39992 155.556 7.44792 153.428 7.44792H150.32V13.1319H153.428Z" fill="#19615B"/>
<path d="M138.548 15.7079C138.548 16.2679 138.51 16.7719 138.436 17.2199H127.096C127.189 18.3399 127.581 19.2173 128.272 19.8519C128.962 20.4866 129.812 20.8039 130.82 20.8039C132.276 20.8039 133.312 20.1786 133.928 18.9279H138.156C137.708 20.4213 136.849 21.6533 135.58 22.6239C134.31 23.5759 132.752 24.0519 130.904 24.0519C129.41 24.0519 128.066 23.7253 126.872 23.0719C125.696 22.3999 124.772 21.4573 124.1 20.2439C123.446 19.0306 123.12 17.6306 123.12 16.0439C123.12 14.4386 123.446 13.0293 124.1 11.8159C124.753 10.6026 125.668 9.66925 126.844 9.01592C128.02 8.36259 129.373 8.03592 130.904 8.03592C132.378 8.03592 133.694 8.35325 134.852 8.98792C136.028 9.62259 136.933 10.5279 137.568 11.7039C138.221 12.8613 138.548 14.1959 138.548 15.7079ZM134.488 14.5879C134.469 13.5799 134.105 12.7773 133.396 12.1799C132.686 11.5639 131.818 11.2559 130.792 11.2559C129.821 11.2559 129 11.5546 128.328 12.1519C127.674 12.7306 127.273 13.5426 127.124 14.5879H134.488Z" fill="#19615B"/>
<path d="M107.116 16.0439C107.116 14.4386 107.442 13.0386 108.096 11.8439C108.749 10.6306 109.654 9.69725 110.812 9.04392C111.969 8.37192 113.294 8.03592 114.788 8.03592C116.71 8.03592 118.297 8.52125 119.548 9.49192C120.817 10.4439 121.666 11.7879 122.096 13.5239H117.868C117.644 12.8519 117.261 12.3293 116.72 11.9559C116.197 11.5639 115.544 11.3679 114.76 11.3679C113.64 11.3679 112.753 11.7786 112.1 12.5999C111.446 13.4026 111.12 14.5506 111.12 16.0439C111.12 17.5186 111.446 18.6666 112.1 19.4879C112.753 20.2906 113.64 20.6919 114.76 20.6919C116.346 20.6919 117.382 19.9826 117.868 18.5639H122.096C121.666 20.2439 120.817 21.5786 119.548 22.5679C118.278 23.5573 116.692 24.0519 114.788 24.0519C113.294 24.0519 111.969 23.7253 110.812 23.0719C109.654 22.3999 108.749 21.4666 108.096 20.2719C107.442 19.0586 107.116 17.6493 107.116 16.0439Z" fill="#19615B"/>
<path d="M99.3279 8.06393C101.176 8.06393 102.669 8.65193 103.808 9.82793C104.947 10.9853 105.516 12.6093 105.516 14.6999V23.7999H101.596V15.2319C101.596 13.9999 101.288 13.0573 100.672 12.4039C100.056 11.7319 99.2159 11.3959 98.1519 11.3959C97.0693 11.3959 96.2106 11.7319 95.5759 12.4039C94.9599 13.0573 94.6519 13.9999 94.6519 15.2319V23.7999H90.7319V8.28793H94.6519V10.2199C95.1746 9.54793 95.8373 9.02527 96.6399 8.65194C97.4613 8.25993 98.3573 8.06393 99.3279 8.06393Z" fill="#19615B"/>
<path d="M88.991 15.7079C88.991 16.2679 88.9537 16.7719 88.879 17.2199H77.539C77.6323 18.3399 78.0243 19.2173 78.715 19.8519C79.4057 20.4866 80.255 20.8039 81.263 20.8039C82.719 20.8039 83.755 20.1786 84.371 18.9279H88.599C88.151 20.4213 87.2923 21.6533 86.023 22.6239C84.7537 23.5759 83.195 24.0519 81.347 24.0519C79.8537 24.0519 78.5097 23.7253 77.315 23.0719C76.139 22.3999 75.215 21.4573 74.543 20.2439C73.8897 19.0306 73.563 17.6306 73.563 16.0439C73.563 14.4386 73.8897 13.0293 74.543 11.8159C75.1963 10.6026 76.111 9.66925 77.287 9.01592C78.463 8.36259 79.8163 8.03592 81.347 8.03592C82.8217 8.03592 84.1377 8.35325 85.295 8.98792C86.471 9.62259 87.3763 10.5279 88.011 11.7039C88.6643 12.8613 88.991 14.1959 88.991 15.7079ZM84.931 14.5879C84.9123 13.5799 84.5483 12.7773 83.839 12.1799C83.1297 11.5639 82.2617 11.2559 81.235 11.2559C80.2643 11.2559 79.443 11.5546 78.771 12.1519C78.1177 12.7306 77.7163 13.5426 77.567 14.5879H84.931Z" fill="#19615B"/>
<path d="M69.886 6.43993C69.1954 6.43993 68.6167 6.22527 68.15 5.79593C67.702 5.34793 67.478 4.79726 67.478 4.14393C67.478 3.4906 67.702 2.94926 68.15 2.51993C68.6167 2.07193 69.1954 1.84793 69.886 1.84793C70.5767 1.84793 71.146 2.07193 71.594 2.51993C72.0607 2.94926 72.294 3.4906 72.294 4.14393C72.294 4.79726 72.0607 5.34793 71.594 5.79593C71.146 6.22527 70.5767 6.43993 69.886 6.43993ZM71.818 8.28793V23.7999H67.898V8.28793H71.818Z" fill="#19615B"/>
<path d="M51.166 16.0439C51.166 14.4386 51.4927 13.0386 52.146 11.8439C52.7993 10.6306 53.7047 9.69725 54.862 9.04392C56.0193 8.37192 57.3447 8.03592 58.838 8.03592C60.7607 8.03592 62.3473 8.52125 63.598 9.49192C64.8673 10.4439 65.7167 11.7879 66.146 13.5239H61.918C61.694 12.8519 61.3113 12.3293 60.77 11.9559C60.2473 11.5639 59.594 11.3679 58.81 11.3679C57.69 11.3679 56.8033 11.7786 56.15 12.5999C55.4967 13.4026 55.17 14.5506 55.17 16.0439C55.17 17.5186 55.4967 18.6666 56.15 19.4879C56.8033 20.2906 57.69 20.6919 58.81 20.6919C60.3967 20.6919 61.4327 19.9826 61.918 18.5639H66.146C65.7167 20.2439 64.8673 21.5786 63.598 22.5679C62.3287 23.5573 60.742 24.0519 58.838 24.0519C57.3447 24.0519 56.0193 23.7253 54.862 23.0719C53.7047 22.3999 52.7993 21.4666 52.146 20.2719C51.4927 19.0586 51.166 17.6493 51.166 16.0439Z" fill="#19615B"/>
<path d="M42.9795 23.9959C41.6169 23.9959 40.3849 23.7626 39.2835 23.2959C38.2009 22.8293 37.3422 22.1573 36.7075 21.2799C36.0729 20.4026 35.7462 19.3666 35.7275 18.1719H39.9275C39.9835 18.9746 40.2635 19.6093 40.7675 20.0759C41.2902 20.5426 41.9995 20.7759 42.8955 20.7759C43.8102 20.7759 44.5289 20.5613 45.0515 20.1319C45.5742 19.6839 45.8355 19.1053 45.8355 18.3959C45.8355 17.8173 45.6582 17.3413 45.3035 16.9679C44.9489 16.5946 44.5009 16.3053 43.9595 16.0999C43.4369 15.8759 42.7089 15.6333 41.7755 15.3719C40.5062 14.9986 39.4702 14.6346 38.6675 14.2799C37.8835 13.9066 37.2022 13.3559 36.6235 12.6279C36.0635 11.8813 35.7835 10.8919 35.7835 9.65992C35.7835 8.50259 36.0729 7.49459 36.6515 6.63592C37.2302 5.77725 38.0422 5.12392 39.0875 4.67592C40.1329 4.20925 41.3275 3.97592 42.6715 3.97592C44.6875 3.97592 46.3209 4.47059 47.5715 5.45992C48.8409 6.43059 49.5409 7.79325 49.6715 9.54792H45.3595C45.3222 8.87592 45.0329 8.32525 44.4915 7.89592C43.9689 7.44792 43.2689 7.22392 42.3915 7.22392C41.6262 7.22392 41.0102 7.41992 40.5435 7.81192C40.0955 8.20392 39.8715 8.77325 39.8715 9.51992C39.8715 10.0426 40.0395 10.4813 40.3755 10.8359C40.7302 11.1719 41.1595 11.4519 41.6635 11.6759C42.1862 11.8813 42.9142 12.1239 43.8475 12.4039C45.1169 12.7773 46.1529 13.1506 46.9555 13.5239C47.7582 13.8973 48.4489 14.4573 49.0275 15.2039C49.6062 15.9506 49.8955 16.9306 49.8955 18.1439C49.8955 19.1893 49.6249 20.1599 49.0835 21.0559C48.5422 21.9519 47.7489 22.6706 46.7035 23.2119C45.6582 23.7346 44.4169 23.9959 42.9795 23.9959Z" fill="#19615B"/>
</svg>
