<svg width="220" height="40" viewBox="0 0 220 40" fill="none" xmlns="http://www.w3.org/2000/svg">
<circle cx="20" cy="20" r="20" fill="black"/>
<path fill-rule="evenodd" clip-rule="evenodd" d="M22.3421 11.9795H21.8203V27.7718H23.8364V22.1717C23.8364 21.7535 23.9558 21.425 24.1948 21.1861C24.4337 20.9471 24.7622 20.8277 25.1804 20.8277H25.6699C25.5579 20.1832 25.4176 19.5247 25.2475 18.8564H25.1804C24.7622 18.8564 24.4337 18.737 24.1948 18.498C23.9558 18.2591 23.8364 17.9305 23.8364 17.5124V15.2948C23.8364 15.1417 23.8524 15.0007 23.8844 14.8717C23.4139 13.801 22.8921 12.8307 22.3421 11.9795ZM26.4815 20.8277H28.1027C28.0001 20.1794 27.8719 19.5211 27.7175 18.8564H26.0722C26.2368 19.5234 26.3728 20.1818 26.4815 20.8277ZM24.4275 14.1301C24.6336 14.0105 24.8846 13.9507 25.1804 13.9507H26.1011C25.7991 13.2598 25.4754 12.6013 25.1338 11.9795H23.2862C23.688 12.6402 24.0711 13.3595 24.4275 14.1301ZM28.9107 20.817C30.0706 20.7493 31.0224 20.3571 31.7661 19.6404C32.5874 18.849 32.9981 17.7663 32.9981 16.3924C32.9981 15.0185 32.5874 13.9433 31.7661 13.1667C30.9448 12.3752 29.8695 11.9795 28.5404 11.9795H26.042C26.3712 12.6058 26.6822 13.2642 26.9717 13.9507H28.3836C29.205 13.9507 29.8397 14.1673 30.2877 14.6003C30.7506 15.0334 30.9821 15.6308 30.9821 16.3924C30.9821 17.154 30.7506 17.7588 30.2877 18.2068C29.8681 18.6124 29.2847 18.8281 28.5376 18.8538C28.6869 19.5148 28.8111 20.1703 28.9107 20.817Z" fill="white"/>
<path d="M8 26.0028H14.3848C15.2297 26.0028 15.9072 25.7683 16.4174 25.2993C16.9435 24.8303 17.2065 24.2251 17.2065 23.4837C17.2065 22.7423 16.9435 22.1371 16.4174 21.6681C15.9072 21.1991 15.2297 20.9645 14.3848 20.9645H8V12H19V13.9972H12.6152C11.7384 13.9972 11.0449 14.2317 10.5348 14.7007C10.0406 15.1546 9.79348 15.7447 9.79348 16.4709C9.79348 17.2123 10.0406 17.8175 10.5348 18.2865C11.0449 18.7404 11.7384 18.9674 12.6152 18.9674H19V28H8V26.0028Z" fill="white"/>
<path fill-rule="evenodd" clip-rule="evenodd" d="M26.5125 27.9689C27.037 25.4057 26.915 21.9755 25.9361 18.3224C24.9573 14.6693 23.3479 11.6377 21.612 9.68012C19.8052 7.6425 18.2336 7.13451 17.2139 7.40775C16.2459 7.66713 15.1992 8.78477 14.6285 11.1797H12.989C13.5807 8.36456 14.8959 6.37237 16.7998 5.86224C20.6408 4.83304 25.4232 10.2262 27.4816 17.9083C29.54 25.5904 28.0949 32.6522 24.2539 33.6814C21.7318 34.3572 18.8039 32.264 16.5077 28.5721H18.4252C18.7563 29.0427 19.0965 29.4743 19.4416 29.8635C21.2485 31.9012 22.82 32.4092 23.8398 32.1359C24.8595 31.8627 25.9665 30.637 26.5125 27.9689ZM14.2922 13.3716C14.3309 12.8865 14.3888 12.4216 14.4649 11.9798H12.8438C12.7747 12.4271 12.7225 12.8918 12.6875 13.3716H14.2922ZM16.9925 26.1719H15.2129C15.4733 26.7292 15.7478 27.2635 16.0342 27.7721H17.8945C17.582 27.2728 17.2801 26.7383 16.9925 26.1719Z" fill="white"/>
<path d="M60.8661 24.4667C60.8661 25.9778 60.4483 27.1156 59.6127 27.88C58.7949 28.6267 57.6127 29 56.0661 29H52.2794V26.9733H56.3327C56.9905 26.9733 57.5238 26.7778 57.9327 26.3867C58.3416 25.9956 58.5461 25.5244 58.5461 24.9733V22.2C58.5461 21.6667 58.4038 21.24 58.1194 20.92C57.8527 20.5822 57.4438 20.4133 56.8927 20.4133H56.0927C54.7772 20.4133 53.7372 20.0311 52.9727 19.2667C52.2083 18.4844 51.8261 17.3556 51.8261 15.88V14.8667C51.8261 13.3556 52.2349 12.2267 53.0527 11.48C53.8883 10.7156 55.0794 10.3333 56.6261 10.3333H60.4394V12.36H56.3594C55.7016 12.36 55.1683 12.5556 54.7594 12.9467C54.3505 13.3378 54.1461 13.8089 54.1461 14.36V16.3867C54.1461 16.9378 54.3238 17.4 54.6794 17.7733C55.0349 18.1289 55.4972 18.3067 56.0661 18.3067H56.8661C58.1283 18.3067 59.1061 18.6711 59.7994 19.4C60.5105 20.1289 60.8661 21.2311 60.8661 22.7067V24.4667ZM69.1604 29C67.596 29 66.4493 28.6711 65.7204 28.0133C64.9915 27.3378 64.6271 26.2444 64.6271 24.7333V19.9333C64.6271 18.44 64.9915 17.3556 65.7204 16.68C66.4671 16.0044 67.6138 15.6667 69.1604 15.6667H72.6004V17.6667H68.8938C68.236 17.6667 67.7382 17.8178 67.4004 18.12C67.0626 18.4222 66.8938 18.8489 66.8938 19.4V25.2667C66.8938 25.8178 67.0626 26.2444 67.4004 26.5467C67.7382 26.8489 68.236 27 68.8938 27H72.6004V29H69.1604ZM82.1481 10.3333V12.7333H79.6148V10.3333H82.1481ZM75.8281 17.6667V15.6667H82.0148V27H85.9615V29H79.7481V17.6667H75.8281ZM93.0025 29C91.4381 29 90.2914 28.6711 89.5625 28.0133C88.8336 27.3378 88.4692 26.2444 88.4692 24.7333V19.9333C88.4692 18.4044 88.7981 17.3111 89.4558 16.6533C90.1136 15.9956 91.2069 15.6667 92.7358 15.6667H93.9892C95.2514 15.6667 96.2025 16.0222 96.8425 16.7333C97.5003 17.4267 97.8292 18.4489 97.8292 19.8V23.2667H90.7358V25.2667C90.7358 25.8178 90.9047 26.2444 91.2425 26.5467C91.5803 26.8489 92.0781 27 92.7358 27H96.9758V29H93.0025ZM95.6158 19.2667C95.6158 18.8044 95.4647 18.4222 95.1625 18.12C94.8603 17.8178 94.4781 17.6667 94.0158 17.6667H92.4692C91.8292 17.6667 91.3758 17.8178 91.1092 18.12C90.8603 18.4044 90.7358 18.8311 90.7358 19.4V21.2667H95.6158V19.2667ZM102.684 15.6667V16.3067C103.235 15.88 103.946 15.6667 104.817 15.6667H106.044C107.484 15.6667 108.55 16.0044 109.244 16.68C109.955 17.3556 110.31 18.44 110.31 19.9333V29H108.044V19.4C108.044 18.8667 107.884 18.4489 107.564 18.1467C107.261 17.8267 106.844 17.6667 106.31 17.6667H104.55C103.964 17.6667 103.528 17.8267 103.244 18.1467C102.959 18.4489 102.817 18.7778 102.817 19.1333V29H100.55V15.6667H102.684ZM118.231 29C116.667 29 115.52 28.6711 114.791 28.0133C114.062 27.3378 113.698 26.2444 113.698 24.7333V19.9333C113.698 18.44 114.062 17.3556 114.791 16.68C115.538 16.0044 116.685 15.6667 118.231 15.6667H121.671V17.6667H117.965C117.307 17.6667 116.809 17.8178 116.471 18.12C116.133 18.4222 115.965 18.8489 115.965 19.4V25.2667C115.965 25.8178 116.133 26.2444 116.471 26.5467C116.809 26.8489 117.307 27 117.965 27H121.671V29H118.231ZM129.806 29C128.241 29 127.095 28.6711 126.366 28.0133C125.637 27.3378 125.272 26.2444 125.272 24.7333V19.9333C125.272 18.4044 125.601 17.3111 126.259 16.6533C126.917 15.9956 128.01 15.6667 129.539 15.6667H130.792C132.055 15.6667 133.006 16.0222 133.646 16.7333C134.303 17.4267 134.632 18.4489 134.632 19.8V23.2667H127.539V25.2667C127.539 25.8178 127.708 26.2444 128.046 26.5467C128.383 26.8489 128.881 27 129.539 27H133.779V29H129.806ZM132.419 19.2667C132.419 18.8044 132.268 18.4222 131.966 18.12C131.663 17.8178 131.281 17.6667 130.819 17.6667H129.272C128.632 17.6667 128.179 17.8178 127.912 18.12C127.663 18.4044 127.539 18.8311 127.539 19.4V21.2667H132.419V19.2667ZM156.128 17.5333C156.128 18.9733 155.745 20.04 154.981 20.7333C154.217 21.4089 153.088 21.7467 151.594 21.7467H148.821V29H146.501V10.3333H151.541C153.052 10.3333 154.19 10.6711 154.954 11.3467C155.737 12.0044 156.128 13.0533 156.128 14.4933V17.5333ZM153.808 14.2533C153.808 13.5778 153.648 13.0889 153.328 12.7867C153.025 12.4844 152.537 12.3333 151.861 12.3333H148.821V19.7467H151.861C152.537 19.7467 153.025 19.5956 153.328 19.2933C153.648 18.9733 153.808 18.4756 153.808 17.8V14.2533ZM168.529 24.7333C168.529 26.2267 168.155 27.3111 167.409 27.9867C166.68 28.6622 165.542 29 163.995 29H163.115C161.569 29 160.422 28.6622 159.675 27.9867C158.947 27.3111 158.582 26.2267 158.582 24.7333V19.9333C158.582 18.44 158.947 17.3556 159.675 16.68C160.422 16.0044 161.569 15.6667 163.115 15.6667H163.995C165.542 15.6667 166.68 16.0044 167.409 16.68C168.155 17.3556 168.529 18.44 168.529 19.9333V24.7333ZM166.262 19.4C166.262 18.8489 166.093 18.4222 165.755 18.12C165.418 17.8178 164.92 17.6667 164.262 17.6667H162.849C162.191 17.6667 161.693 17.8178 161.355 18.12C161.018 18.4222 160.849 18.8489 160.849 19.4V25.2667C160.849 25.8178 161.018 26.2444 161.355 26.5467C161.693 26.8489 162.191 27 162.849 27H164.262C164.92 27 165.418 26.8489 165.755 26.5467C166.093 26.2444 166.262 25.8178 166.262 25.2667V19.4ZM173.25 27V17.6667H171.303V15.6667H175.383V16.3867C175.97 15.9067 176.681 15.6667 177.516 15.6667H180.263V17.8H177.25C176.681 17.8 176.254 17.9867 175.97 18.36C175.685 18.7156 175.534 19.08 175.516 19.4533V27H178.423V29H171.303V27H173.25ZM189.091 29C188.184 29 187.491 28.7067 187.011 28.12C186.531 27.5333 186.291 26.76 186.291 25.8V17.6667H183.758V15.6667H186.291V12.4667H188.558V15.6667H192.451V17.6667H188.558V25.9333C188.558 26.3244 188.655 26.6 188.851 26.76C189.046 26.92 189.349 27 189.758 27H192.451V29H189.091ZM204.292 29C204.061 29 203.803 28.9289 203.519 28.7867C203.252 28.6444 203.021 28.4489 202.825 28.2C202.416 28.7333 201.874 29 201.199 29H198.825C197.474 29 196.487 28.7333 195.865 28.2C195.261 27.6489 194.959 26.7156 194.959 25.4V24.8667C194.959 22.1111 196.256 20.7333 198.852 20.7333H202.159V19.4C202.159 18.8489 201.99 18.4222 201.652 18.12C201.314 17.8178 200.816 17.6667 200.159 17.6667H196.025V15.6667H199.892C201.439 15.6667 202.576 16.0044 203.305 16.68C204.052 17.3556 204.425 18.44 204.425 19.9333V26.3333C204.425 26.6 204.523 26.8044 204.719 26.9467C204.932 27.0711 205.279 27.1333 205.759 27.1333V29H204.292ZM200.932 27C201.465 27 201.803 26.8756 201.945 26.6267C202.087 26.3778 202.159 26.0578 202.159 25.6667V22.7333H198.825C198.363 22.7333 197.981 22.8844 197.679 23.1867C197.376 23.4889 197.225 23.8711 197.225 24.3333V25.6667C197.225 26.1289 197.332 26.4667 197.545 26.68C197.759 26.8933 198.096 27 198.559 27H200.932ZM213.493 29C212.888 29 212.355 28.7867 211.893 28.36C211.448 27.9333 211.226 27.2578 211.226 26.3333V12.3333H207.306V10.3333H213.493V26.2C213.493 26.4844 213.564 26.6889 213.706 26.8133C213.848 26.9378 214.088 27 214.426 27H217.973V29H213.493Z" fill="black"/>
</svg>
