<svg width="1757" height="512" viewBox="0 0 1757 512" fill="none" xmlns="http://www.w3.org/2000/svg">
<g clip-path="url(#clip0_263_673)">
<path d="M923.529 347.675C923.529 391.35 921.63 410.339 911.186 430.278C890.298 472.053 834.28 510.981 734.588 510.981C655.783 510.981 600.715 489.144 570.332 448.317C551.343 420.783 545.646 408.44 545.646 341.978V0.175293H675.722V327.737C675.722 374.26 689.963 404.642 735.537 404.642C782.06 404.642 794.403 379.007 794.403 329.636V1.12475H923.529V347.675Z" fill="#2A6EBB"/>
<path d="M1203.62 503.386V291.658H1100.13V502.436H971.004V1.125H1100.13V185.319H1203.62V1.125H1332.75V503.386H1203.62Z" fill="#2A6EBB"/>
<path d="M1624.22 503.386L1535.92 328.686C1522.63 303.051 1507.44 266.972 1496.99 234.69C1499.84 253.68 1504.59 300.203 1504.59 361.917V503.386H1382.11V1.125H1505.54L1596.69 172.976C1610.93 199.561 1626.12 234.69 1638.46 268.871C1634.66 239.438 1633.71 190.066 1633.71 156.835V1.125H1756.19V503.386H1624.22Z" fill="#2A6EBB"/>
<path d="M332.021 98.9192C329.172 122.655 320.627 137.847 327.273 171.078C337.717 228.045 374.746 225.196 375.695 285.961C375.695 286.911 376.645 287.86 377.594 287.86C378.544 287.86 378.544 287.86 379.493 286.911C398.482 258.427 409.876 220.449 411.775 178.673C412.724 119.807 388.038 69.4861 344.363 34.3564C344.363 34.3564 343.414 33.4069 344.363 33.4069C344.363 32.4574 345.313 32.4574 345.313 33.4069C409.876 76.1323 441.208 146.392 426.016 221.399C416.522 269.821 391.836 309.698 355.757 332.485C339.616 342.929 330.122 345.777 313.032 350.524C312.082 350.524 312.082 352.423 313.032 353.373C315.88 354.322 318.728 356.221 321.577 357.17C322.526 358.12 323.475 358.12 324.425 357.17C352.909 339.131 389.937 324.889 428.865 319.192C442.157 317.293 469.691 312.546 466.843 292.608C464.944 285.012 463.995 278.366 462.096 270.77C460.197 263.175 467.792 260.326 471.59 257.478C475.388 250.832 472.54 246.084 466.843 242.287C464.944 241.337 464.944 239.438 465.894 239.438C472.54 239.438 477.287 233.742 476.337 228.994C473.489 222.348 464.944 211.904 472.54 202.41C476.338 196.713 478.236 195.763 485.832 193.864C493.428 191.966 496.276 183.42 492.478 178.673C478.236 160.634 467.792 148.291 453.551 130.251C446.904 116.959 463.995 99.8686 448.803 83.7279C410.825 43.8509 360.504 9.67058 290.245 2.07495C289.295 2.07495 288.346 3.0244 288.346 3.97386C291.194 20.1146 302.588 31.508 313.032 41.0025C328.223 55.2443 334.869 77.0817 332.021 98.9192Z" fill="#B7A66D"/>
<path d="M464.942 415.086C465.891 414.137 464.942 412.238 463.992 412.238C448.801 406.541 433.61 411.288 419.368 415.086C398.48 421.732 375.693 416.985 359.552 402.743C341.513 388.502 332.018 373.31 299.737 361.917C245.618 342.928 229.477 376.159 176.308 346.726C175.358 345.776 174.409 346.726 174.409 347.675C174.409 348.625 174.409 348.625 174.409 349.574C189.6 379.956 216.185 409.39 251.315 431.227C301.636 461.609 356.704 464.458 408.924 444.519H409.873V445.469C340.563 480.599 264.607 472.053 208.589 421.732C171.561 388.502 149.723 347.675 148.774 304.95C147.824 285.961 149.723 275.517 154.47 258.426C154.47 257.477 153.521 256.528 152.572 257.477C149.723 259.376 147.824 261.275 144.976 262.224C144.026 263.174 143.077 264.123 144.026 265.073C144.026 309.697 136.431 361.917 115.543 409.39C112.695 416.036 115.543 423.631 119.341 428.379C125.037 434.075 129.785 433.126 136.431 435.974C143.077 437.873 144.976 447.368 146.875 451.165C150.673 454.963 154.47 454.963 156.369 454.014C157.319 454.014 157.319 454.014 157.319 454.014C157.319 455.913 158.268 459.711 162.066 462.559C163.965 463.508 174.409 460.66 177.257 465.407C182.005 473.003 177.257 486.295 186.752 489.144C200.994 489.144 219.033 482.497 235.174 485.346C252.264 488.194 263.658 501.486 280.748 507.183C293.091 510.981 304.484 512.88 315.877 510.032C368.097 500.537 423.166 471.104 464.942 415.086Z" fill="#B7A66D"/>
<path d="M20.6047 360.967C21.5542 361.916 22.5036 361.916 24.4025 361.916C36.7454 351.472 40.5432 335.332 43.3916 321.09C48.1389 300.202 63.3301 282.162 83.2686 274.567C105.106 266.021 122.196 265.072 147.831 242.285C191.506 204.307 170.618 173.925 221.889 142.593C223.788 141.643 223.788 140.694 223.788 139.744C223.788 138.795 222.838 138.795 221.889 138.795C187.708 136.896 149.73 145.441 113.651 165.379C62.3807 193.863 31.9982 241.336 23.4531 296.404C23.4531 297.353 23.4531 297.353 22.5036 297.353C21.5542 297.353 21.5542 296.404 21.5542 296.404C25.352 218.549 70.9257 155.885 142.135 131.199C188.658 115.058 235.181 116.957 272.21 136.896C288.35 145.441 296.896 152.087 309.238 165.379C310.188 166.329 311.137 165.379 311.137 164.43C311.137 161.582 310.188 157.784 310.188 154.935C310.188 153.986 309.238 153.037 308.289 152.087C278.856 135.946 247.524 111.261 223.788 79.9287C215.243 69.4847 199.102 50.4956 182.012 59.9901C176.315 64.7374 174.416 66.6363 168.719 73.2825C163.972 78.9792 153.528 77.0803 149.73 74.2319C142.135 74.2319 136.438 79.9287 137.387 87.5243C137.387 89.4232 135.489 90.3726 135.489 89.4232C131.691 83.7265 120.297 82.777 116.499 89.4232C115.55 94.1705 110.803 105.564 102.258 99.8672C92.7632 92.2715 83.2686 93.221 78.5214 100.817C70.9257 116.008 70.9257 119.806 53.8356 147.34C44.3411 159.683 14.908 170.127 10.1607 186.267C-2.18214 239.437 -5.97995 294.505 20.6047 360.967Z" fill="#B7A66D"/>
</g>
<defs>
<clipPath id="clip0_263_673">
<rect width="1756.3" height="512" fill="white"/>
</clipPath>
</defs>
</svg>
